%TF.GenerationSoftware,KiCad,Pcbnew,8.0.3*%
%TF.CreationDate,2024-07-18T08:28:15+09:00*%
%TF.ProjectId,DCDC_24to12,44434443-5f32-4347-946f-31322e6b6963,rev?*%
%TF.SameCoordinates,Original*%
%TF.FileFunction,Soldermask,Top*%
%TF.FilePolarity,Negative*%
%FSLAX46Y46*%
G04 Gerber Fmt 4.6, Leading zero omitted, Abs format (unit mm)*
G04 Created by KiCad (PCBNEW 8.0.3) date 2024-07-18 08:28:15*
%MOMM*%
%LPD*%
G01*
G04 APERTURE LIST*
G04 Aperture macros list*
%AMRoundRect*
0 Rectangle with rounded corners*
0 $1 Rounding radius*
0 $2 $3 $4 $5 $6 $7 $8 $9 X,Y pos of 4 corners*
0 Add a 4 corners polygon primitive as box body*
4,1,4,$2,$3,$4,$5,$6,$7,$8,$9,$2,$3,0*
0 Add four circle primitives for the rounded corners*
1,1,$1+$1,$2,$3*
1,1,$1+$1,$4,$5*
1,1,$1+$1,$6,$7*
1,1,$1+$1,$8,$9*
0 Add four rect primitives between the rounded corners*
20,1,$1+$1,$2,$3,$4,$5,0*
20,1,$1+$1,$4,$5,$6,$7,0*
20,1,$1+$1,$6,$7,$8,$9,0*
20,1,$1+$1,$8,$9,$2,$3,0*%
G04 Aperture macros list end*
%ADD10C,0.100000*%
%ADD11RoundRect,0.250000X0.250000X0.475000X-0.250000X0.475000X-0.250000X-0.475000X0.250000X-0.475000X0*%
%ADD12R,2.000000X0.900000*%
%ADD13RoundRect,1.025000X1.025000X-1.025000X1.025000X1.025000X-1.025000X1.025000X-1.025000X-1.025000X0*%
%ADD14C,4.100000*%
%ADD15RoundRect,0.250000X-0.475000X0.250000X-0.475000X-0.250000X0.475000X-0.250000X0.475000X0.250000X0*%
%ADD16RoundRect,0.250000X0.325000X0.650000X-0.325000X0.650000X-0.325000X-0.650000X0.325000X-0.650000X0*%
%ADD17RoundRect,0.250000X0.450000X-0.262500X0.450000X0.262500X-0.450000X0.262500X-0.450000X-0.262500X0*%
%ADD18RoundRect,0.250000X-0.450000X0.262500X-0.450000X-0.262500X0.450000X-0.262500X0.450000X0.262500X0*%
%ADD19RoundRect,0.250000X0.262500X0.450000X-0.262500X0.450000X-0.262500X-0.450000X0.262500X-0.450000X0*%
%ADD20RoundRect,0.218750X0.218750X0.256250X-0.218750X0.256250X-0.218750X-0.256250X0.218750X-0.256250X0*%
%ADD21RoundRect,1.025000X1.025000X1.025000X-1.025000X1.025000X-1.025000X-1.025000X1.025000X-1.025000X0*%
%ADD22R,0.900000X2.000000*%
%ADD23C,2.604000*%
%ADD24RoundRect,0.508530X-1.041470X-1.991470X1.041470X-1.991470X1.041470X1.991470X-1.041470X1.991470X0*%
%ADD25R,0.279400X0.508000*%
%ADD26R,0.508000X0.279400*%
%ADD27R,3.608100X0.279400*%
%ADD28R,3.302000X0.508000*%
%ADD29R,3.302000X0.736600*%
%ADD30R,0.279400X0.500000*%
%ADD31RoundRect,0.250000X-0.900000X1.000000X-0.900000X-1.000000X0.900000X-1.000000X0.900000X1.000000X0*%
G04 APERTURE END LIST*
D10*
X103505000Y-54330999D02*
X104775000Y-54330999D01*
X104775000Y-54965999D01*
X103505000Y-54965999D01*
X103505000Y-54330999D01*
G36*
X103505000Y-54330999D02*
G01*
X104775000Y-54330999D01*
X104775000Y-54965999D01*
X103505000Y-54965999D01*
X103505000Y-54330999D01*
G37*
X100076000Y-55219999D02*
X104140000Y-55219999D01*
X104140000Y-56362999D01*
X100076000Y-56362999D01*
X100076000Y-55219999D01*
G36*
X100076000Y-55219999D02*
G01*
X104140000Y-55219999D01*
X104140000Y-56362999D01*
X100076000Y-56362999D01*
X100076000Y-55219999D01*
G37*
X99060000Y-53721000D02*
X100584000Y-53721000D01*
X100584000Y-54229000D01*
X99060000Y-54229000D01*
X99060000Y-53721000D01*
G36*
X99060000Y-53721000D02*
G01*
X100584000Y-53721000D01*
X100584000Y-54229000D01*
X99060000Y-54229000D01*
X99060000Y-53721000D01*
G37*
D11*
%TO.C,C6*%
X117028000Y-60960000D03*
X115128000Y-60960000D03*
%TD*%
D12*
%TO.C,J1*%
X74175000Y-65062000D03*
X74175000Y-51562000D03*
D13*
X80175000Y-61912000D03*
D14*
X80175000Y-54712000D03*
%TD*%
D15*
%TO.C,C5*%
X96266000Y-54422000D03*
X96266000Y-56322000D03*
%TD*%
%TO.C,C7*%
X98298000Y-54422000D03*
X98298000Y-56322000D03*
%TD*%
D16*
%TO.C,C4*%
X117045000Y-63500000D03*
X114095000Y-63500000D03*
%TD*%
D17*
%TO.C,R9*%
X94488000Y-50061500D03*
X94488000Y-48236500D03*
%TD*%
D18*
%TO.C,R3*%
X104648000Y-45823500D03*
X104648000Y-47648500D03*
%TD*%
D19*
%TO.C,R10*%
X109624500Y-42545000D03*
X107799500Y-42545000D03*
%TD*%
D20*
%TO.C,D2*%
X98044000Y-40640000D03*
X96469000Y-40640000D03*
%TD*%
D11*
%TO.C,C2*%
X99181998Y-52070000D03*
X97282000Y-52070000D03*
%TD*%
D20*
%TO.C,D4*%
X108229500Y-40640000D03*
X106654500Y-40640000D03*
%TD*%
%TO.C,D3*%
X103149500Y-40640000D03*
X101574500Y-40640000D03*
%TD*%
D14*
%TO.C,J2*%
X119805000Y-67645000D03*
D21*
X112605000Y-67645000D03*
D22*
X109455000Y-73645000D03*
X122955000Y-73645000D03*
%TD*%
D17*
%TO.C,R7*%
X98552000Y-50061500D03*
X98552000Y-48236500D03*
%TD*%
D19*
%TO.C,R2*%
X103274500Y-42672000D03*
X101449500Y-42672000D03*
%TD*%
D23*
%TO.C,F1*%
X89670000Y-48055000D03*
X89670000Y-44655000D03*
X76200000Y-48055000D03*
X76200000Y-44655000D03*
%TD*%
D18*
%TO.C,R8*%
X96520000Y-48236500D03*
X96520000Y-50061500D03*
%TD*%
D24*
%TO.C,L1*%
X110236000Y-52324000D03*
X121236000Y-52324000D03*
%TD*%
D25*
%TO.C,U1*%
X103348315Y-52705000D03*
X102848189Y-52705000D03*
X102348063Y-52705000D03*
X101847937Y-52705000D03*
X101347811Y-52705000D03*
X100847685Y-52705000D03*
D26*
X100547965Y-53314999D03*
D27*
X102098000Y-53924799D03*
D28*
X102098000Y-53930006D03*
X102098000Y-54630005D03*
D27*
X102098000Y-54635999D03*
X102098000Y-55245599D03*
D29*
X102098000Y-55492995D03*
D27*
X102098000Y-55728199D03*
D30*
X103348000Y-55804999D03*
X102848000Y-55804999D03*
X102348000Y-55804999D03*
X101848000Y-55804999D03*
X101348000Y-55804999D03*
X100848000Y-55804999D03*
D26*
X103648035Y-53314999D03*
%TD*%
D18*
%TO.C,R6*%
X100584000Y-48236500D03*
X100584000Y-50061500D03*
%TD*%
D17*
%TO.C,R4*%
X102616000Y-50061500D03*
X102616000Y-48236500D03*
%TD*%
D15*
%TO.C,C3*%
X94234000Y-54422000D03*
X94234000Y-56322000D03*
%TD*%
D31*
%TO.C,D1*%
X88265000Y-52841000D03*
X88265000Y-57141000D03*
%TD*%
D19*
%TO.C,R1*%
X98194500Y-42672000D03*
X96369500Y-42672000D03*
%TD*%
D17*
%TO.C,R5*%
X106680000Y-48156500D03*
X106680000Y-46331500D03*
%TD*%
D15*
%TO.C,C1*%
X104648000Y-49342000D03*
X104648000Y-51242000D03*
%TD*%
M02*
