%TF.GenerationSoftware,KiCad,Pcbnew,8.0.3*%
%TF.CreationDate,2024-07-17T12:48:18+09:00*%
%TF.ProjectId,DCDC_24to12,44434443-5f32-4347-946f-31322e6b6963,rev?*%
%TF.SameCoordinates,Original*%
%TF.FileFunction,Copper,L1,Top*%
%TF.FilePolarity,Positive*%
%FSLAX46Y46*%
G04 Gerber Fmt 4.6, Leading zero omitted, Abs format (unit mm)*
G04 Created by KiCad (PCBNEW 8.0.3) date 2024-07-17 12:48:18*
%MOMM*%
%LPD*%
G01*
G04 APERTURE LIST*
G04 Aperture macros list*
%AMRoundRect*
0 Rectangle with rounded corners*
0 $1 Rounding radius*
0 $2 $3 $4 $5 $6 $7 $8 $9 X,Y pos of 4 corners*
0 Add a 4 corners polygon primitive as box body*
4,1,4,$2,$3,$4,$5,$6,$7,$8,$9,$2,$3,0*
0 Add four circle primitives for the rounded corners*
1,1,$1+$1,$2,$3*
1,1,$1+$1,$4,$5*
1,1,$1+$1,$6,$7*
1,1,$1+$1,$8,$9*
0 Add four rect primitives between the rounded corners*
20,1,$1+$1,$2,$3,$4,$5,0*
20,1,$1+$1,$4,$5,$6,$7,0*
20,1,$1+$1,$6,$7,$8,$9,0*
20,1,$1+$1,$8,$9,$2,$3,0*%
G04 Aperture macros list end*
%TA.AperFunction,SMDPad,CuDef*%
%ADD10RoundRect,0.250000X0.250000X0.475000X-0.250000X0.475000X-0.250000X-0.475000X0.250000X-0.475000X0*%
%TD*%
%TA.AperFunction,ComponentPad*%
%ADD11R,2.000000X0.900000*%
%TD*%
%TA.AperFunction,ComponentPad*%
%ADD12RoundRect,1.025000X1.025000X-1.025000X1.025000X1.025000X-1.025000X1.025000X-1.025000X-1.025000X0*%
%TD*%
%TA.AperFunction,ComponentPad*%
%ADD13C,4.100000*%
%TD*%
%TA.AperFunction,SMDPad,CuDef*%
%ADD14RoundRect,0.250000X-0.475000X0.250000X-0.475000X-0.250000X0.475000X-0.250000X0.475000X0.250000X0*%
%TD*%
%TA.AperFunction,SMDPad,CuDef*%
%ADD15RoundRect,0.250000X0.325000X0.650000X-0.325000X0.650000X-0.325000X-0.650000X0.325000X-0.650000X0*%
%TD*%
%TA.AperFunction,SMDPad,CuDef*%
%ADD16RoundRect,0.250000X0.450000X-0.262500X0.450000X0.262500X-0.450000X0.262500X-0.450000X-0.262500X0*%
%TD*%
%TA.AperFunction,SMDPad,CuDef*%
%ADD17RoundRect,0.250000X-0.450000X0.262500X-0.450000X-0.262500X0.450000X-0.262500X0.450000X0.262500X0*%
%TD*%
%TA.AperFunction,SMDPad,CuDef*%
%ADD18RoundRect,0.250000X0.262500X0.450000X-0.262500X0.450000X-0.262500X-0.450000X0.262500X-0.450000X0*%
%TD*%
%TA.AperFunction,SMDPad,CuDef*%
%ADD19RoundRect,0.218750X0.218750X0.256250X-0.218750X0.256250X-0.218750X-0.256250X0.218750X-0.256250X0*%
%TD*%
%TA.AperFunction,ComponentPad*%
%ADD20RoundRect,1.025000X1.025000X1.025000X-1.025000X1.025000X-1.025000X-1.025000X1.025000X-1.025000X0*%
%TD*%
%TA.AperFunction,ComponentPad*%
%ADD21R,0.900000X2.000000*%
%TD*%
%TA.AperFunction,ComponentPad*%
%ADD22C,2.400000*%
%TD*%
%TA.AperFunction,SMDPad,CuDef*%
%ADD23RoundRect,0.508530X-1.041470X-1.991470X1.041470X-1.991470X1.041470X1.991470X-1.041470X1.991470X0*%
%TD*%
%TA.AperFunction,SMDPad,CuDef*%
%ADD24R,0.279400X0.508000*%
%TD*%
%TA.AperFunction,SMDPad,CuDef*%
%ADD25R,0.508000X0.279400*%
%TD*%
%TA.AperFunction,SMDPad,CuDef*%
%ADD26R,3.608100X0.279400*%
%TD*%
%TA.AperFunction,SMDPad,CuDef*%
%ADD27R,3.302000X0.508000*%
%TD*%
%TA.AperFunction,SMDPad,CuDef*%
%ADD28R,3.302000X0.736600*%
%TD*%
%TA.AperFunction,SMDPad,CuDef*%
%ADD29R,0.279400X0.500000*%
%TD*%
%TA.AperFunction,SMDPad,CuDef*%
%ADD30RoundRect,0.250000X-0.900000X1.000000X-0.900000X-1.000000X0.900000X-1.000000X0.900000X1.000000X0*%
%TD*%
%TA.AperFunction,ViaPad*%
%ADD31C,0.600000*%
%TD*%
%TA.AperFunction,Conductor*%
%ADD32C,0.254000*%
%TD*%
%TA.AperFunction,Conductor*%
%ADD33C,0.200000*%
%TD*%
G04 APERTURE END LIST*
D10*
%TO.P,C6,1*%
%TO.N,+12V*%
X117028000Y-60960000D03*
%TO.P,C6,2*%
%TO.N,GND*%
X115128000Y-60960000D03*
%TD*%
D11*
%TO.P,J1,*%
%TO.N,*%
X74175000Y-65062000D03*
X74175000Y-51562000D03*
D12*
%TO.P,J1,1,Pin_1*%
%TO.N,GND*%
X80175000Y-61912000D03*
D13*
%TO.P,J1,2,Pin_2*%
%TO.N,Net-(J1-Pin_2)*%
X80175000Y-54712000D03*
%TD*%
D14*
%TO.P,C5,1*%
%TO.N,+BATT*%
X96266000Y-54422000D03*
%TO.P,C5,2*%
%TO.N,GND*%
X96266000Y-56322000D03*
%TD*%
%TO.P,C7,1*%
%TO.N,+BATT*%
X98298000Y-54422000D03*
%TO.P,C7,2*%
%TO.N,GND*%
X98298000Y-56322000D03*
%TD*%
D15*
%TO.P,C4,1*%
%TO.N,+12V*%
X117045000Y-63500000D03*
%TO.P,C4,2*%
%TO.N,GND*%
X114095000Y-63500000D03*
%TD*%
D16*
%TO.P,R9,1*%
%TO.N,Net-(R8-Pad2)*%
X94488000Y-50061500D03*
%TO.P,R9,2*%
%TO.N,GND*%
X94488000Y-48236500D03*
%TD*%
D17*
%TO.P,R3,1*%
%TO.N,+12V*%
X104648000Y-45823500D03*
%TO.P,R3,2*%
%TO.N,Net-(U1-VOUT)*%
X104648000Y-47648500D03*
%TD*%
D18*
%TO.P,R10,1*%
%TO.N,Net-(D4-K)*%
X109624500Y-42545000D03*
%TO.P,R10,2*%
%TO.N,GND*%
X107799500Y-42545000D03*
%TD*%
D19*
%TO.P,D2,1,K*%
%TO.N,Net-(D2-K)*%
X98044000Y-40640000D03*
%TO.P,D2,2,A*%
%TO.N,+BATT*%
X96469000Y-40640000D03*
%TD*%
D10*
%TO.P,C2,1*%
%TO.N,GND*%
X99181998Y-52070000D03*
%TO.P,C2,2*%
%TO.N,VREG*%
X97282000Y-52070000D03*
%TD*%
D19*
%TO.P,D4,1,K*%
%TO.N,Net-(D4-K)*%
X108229500Y-40640000D03*
%TO.P,D4,2,A*%
%TO.N,VREG*%
X106654500Y-40640000D03*
%TD*%
%TO.P,D3,1,K*%
%TO.N,Net-(D3-K)*%
X103149500Y-40640000D03*
%TO.P,D3,2,A*%
%TO.N,+12V*%
X101574500Y-40640000D03*
%TD*%
D13*
%TO.P,J2,2,Pin_2*%
%TO.N,+12V*%
X119805000Y-67645000D03*
D20*
%TO.P,J2,1,Pin_1*%
%TO.N,GND*%
X112605000Y-67645000D03*
D21*
%TO.P,J2,*%
%TO.N,*%
X109455000Y-73645000D03*
X122955000Y-73645000D03*
%TD*%
D16*
%TO.P,R7,1*%
%TO.N,FB*%
X98552000Y-50061500D03*
%TO.P,R7,2*%
%TO.N,Net-(R7-Pad2)*%
X98552000Y-48236500D03*
%TD*%
D18*
%TO.P,R2,1*%
%TO.N,Net-(D3-K)*%
X103274500Y-42672000D03*
%TO.P,R2,2*%
%TO.N,GND*%
X101449500Y-42672000D03*
%TD*%
D22*
%TO.P,F1,1*%
%TO.N,+BATT*%
X89670000Y-48055000D03*
X89670000Y-44655000D03*
%TO.P,F1,2*%
%TO.N,Net-(J1-Pin_2)*%
X76200000Y-48055000D03*
X76200000Y-44655000D03*
%TD*%
D17*
%TO.P,R8,1*%
%TO.N,Net-(R7-Pad2)*%
X96520000Y-48236500D03*
%TO.P,R8,2*%
%TO.N,Net-(R8-Pad2)*%
X96520000Y-50061500D03*
%TD*%
D23*
%TO.P,L1,1,1*%
%TO.N,SW*%
X110236000Y-52324000D03*
%TO.P,L1,2,2*%
%TO.N,+12V*%
X121236000Y-52324000D03*
%TD*%
D24*
%TO.P,U1,1,BOOT*%
%TO.N,BOOT*%
X103348315Y-52705000D03*
%TO.P,U1,2,PGD*%
%TO.N,PGD*%
X102848189Y-52705000D03*
%TO.P,U1,3,VOUT*%
%TO.N,Net-(U1-VOUT)*%
X102348063Y-52705000D03*
%TO.P,U1,4,FREQ*%
%TO.N,Net-(U1-FREQ)*%
X101847937Y-52705000D03*
%TO.P,U1,5,FB*%
%TO.N,FB*%
X101347811Y-52705000D03*
%TO.P,U1,6,VREG*%
%TO.N,VREG*%
X100847685Y-52705000D03*
D25*
%TO.P,U1,7,GND*%
%TO.N,GND*%
X100547965Y-53314999D03*
D26*
%TO.P,U1,8,VIN*%
%TO.N,+BATT*%
X102098000Y-53924799D03*
D27*
X102098000Y-53930006D03*
%TO.P,U1,9,SW*%
%TO.N,SW*%
X102098000Y-54630005D03*
D26*
X102098000Y-54635999D03*
%TO.P,U1,10,PGND*%
%TO.N,GND*%
X102098000Y-55245599D03*
D28*
X102098000Y-55492995D03*
D26*
X102098000Y-55728199D03*
D29*
X103348000Y-55804999D03*
X102848000Y-55804999D03*
X102348000Y-55804999D03*
X101848000Y-55804999D03*
X101348000Y-55804999D03*
X100848000Y-55804999D03*
D25*
%TO.P,U1,11,EN*%
%TO.N,+BATT*%
X103648035Y-53314999D03*
%TD*%
D17*
%TO.P,R6,1*%
%TO.N,+12V*%
X100584000Y-48236500D03*
%TO.P,R6,2*%
%TO.N,FB*%
X100584000Y-50061500D03*
%TD*%
D16*
%TO.P,R4,1*%
%TO.N,Net-(U1-FREQ)*%
X102616000Y-50061500D03*
%TO.P,R4,2*%
%TO.N,VREG*%
X102616000Y-48236500D03*
%TD*%
D14*
%TO.P,C3,1*%
%TO.N,+BATT*%
X94234000Y-54422000D03*
%TO.P,C3,2*%
%TO.N,GND*%
X94234000Y-56322000D03*
%TD*%
D30*
%TO.P,D1,1,K*%
%TO.N,+BATT*%
X88265000Y-52841000D03*
%TO.P,D1,2,A*%
%TO.N,GND*%
X88265000Y-57141000D03*
%TD*%
D18*
%TO.P,R1,1*%
%TO.N,Net-(D2-K)*%
X98194500Y-42672000D03*
%TO.P,R1,2*%
%TO.N,GND*%
X96369500Y-42672000D03*
%TD*%
D16*
%TO.P,R5,1*%
%TO.N,+BATT*%
X106680000Y-48156500D03*
%TO.P,R5,2*%
%TO.N,PGD*%
X106680000Y-46331500D03*
%TD*%
D14*
%TO.P,C1,1*%
%TO.N,BOOT*%
X104648000Y-49342000D03*
%TO.P,C1,2*%
%TO.N,SW*%
X104648000Y-51242000D03*
%TD*%
D31*
%TO.N,GND*%
X113030000Y-44196000D03*
X88900000Y-68580000D03*
X115570000Y-44196000D03*
X123190000Y-44196000D03*
X96520000Y-63500000D03*
X96520000Y-68580000D03*
X99060000Y-52070000D03*
X91440000Y-68580000D03*
X83820000Y-68580000D03*
X129921000Y-50165000D03*
X96520000Y-71120000D03*
X113030000Y-40767000D03*
X93980000Y-63500000D03*
X104140000Y-66040000D03*
X129921000Y-73025000D03*
X99060000Y-68580000D03*
X130810000Y-42418000D03*
X129921000Y-60325000D03*
X129921000Y-52705000D03*
X131826000Y-65405000D03*
X131826000Y-67945000D03*
X131826000Y-62865000D03*
X83820000Y-60960000D03*
X86360000Y-60960000D03*
X93980000Y-68580000D03*
X115570000Y-42418000D03*
X91440000Y-60960000D03*
X88900000Y-66040000D03*
X106680000Y-68580000D03*
X107442000Y-42037000D03*
X131826000Y-57785000D03*
X104140000Y-68580000D03*
X100330000Y-44958000D03*
X108204000Y-43053000D03*
X100330000Y-46736000D03*
X101600000Y-63500000D03*
X93980000Y-46736000D03*
X131826000Y-52705000D03*
X101600000Y-66040000D03*
X123190000Y-42418000D03*
X113030000Y-42418000D03*
X131826000Y-70485000D03*
X131826000Y-60325000D03*
X129921000Y-67945000D03*
X93980000Y-60960000D03*
X131826000Y-50165000D03*
X95250000Y-44958000D03*
X99060000Y-60960000D03*
X91440000Y-63500000D03*
X104140000Y-63500000D03*
X96520000Y-44958000D03*
X128270000Y-44196000D03*
X97790000Y-44958000D03*
X131826000Y-55245000D03*
X125730000Y-42418000D03*
X118110000Y-40767000D03*
X99060000Y-46736000D03*
X125730000Y-44196000D03*
X94488000Y-48260000D03*
X115570000Y-40767000D03*
X118110000Y-44196000D03*
X129921000Y-57785000D03*
X106680000Y-66040000D03*
X96520000Y-60960000D03*
X86360000Y-68580000D03*
X130810000Y-44196000D03*
X110490000Y-44196000D03*
X86360000Y-63500000D03*
X97790000Y-46736000D03*
X131064000Y-48133000D03*
X129921000Y-65405000D03*
X125730000Y-40767000D03*
X86360000Y-66040000D03*
X91440000Y-66040000D03*
X104140000Y-73660000D03*
X107442000Y-43053000D03*
X104140000Y-71120000D03*
X125730000Y-46228000D03*
X96520000Y-66040000D03*
X99060000Y-66040000D03*
X130810000Y-46228000D03*
X104140000Y-60960000D03*
X129921000Y-70485000D03*
X128270000Y-46228000D03*
X120650000Y-40767000D03*
X123190000Y-40767000D03*
X128270000Y-40767000D03*
X101600000Y-60960000D03*
X106680000Y-73660000D03*
X93980000Y-66040000D03*
X129921000Y-55245000D03*
X120650000Y-42418000D03*
X129921000Y-62865000D03*
X99060000Y-71120000D03*
X88900000Y-60960000D03*
X129032000Y-48133000D03*
X96520000Y-46736000D03*
X106680000Y-71120000D03*
X99060000Y-44958000D03*
X83820000Y-63500000D03*
X120650000Y-44196000D03*
X88900000Y-63500000D03*
X83820000Y-66040000D03*
X95250000Y-46736000D03*
X106680000Y-60960000D03*
X99060000Y-63500000D03*
X106680000Y-63500000D03*
X131826000Y-73025000D03*
X118110000Y-42418000D03*
X126873000Y-48133000D03*
X108204000Y-42037000D03*
X130810000Y-40767000D03*
X101600000Y-68580000D03*
X101600000Y-71120000D03*
X128270000Y-42418000D03*
X93980000Y-44958000D03*
X101600000Y-73660000D03*
%TO.N,+12V*%
X126365000Y-62865000D03*
X120015000Y-50165000D03*
X121285000Y-52705000D03*
X123825000Y-67945000D03*
X118745000Y-60325000D03*
X126365000Y-50165000D03*
X123825000Y-55245000D03*
X120015000Y-53975000D03*
X122555000Y-50165000D03*
X123825000Y-62865000D03*
X126365000Y-55245000D03*
X123825000Y-50165000D03*
X126365000Y-52705000D03*
X121285000Y-50165000D03*
X120015000Y-52705000D03*
X120015000Y-51435000D03*
X121285000Y-60325000D03*
X123825000Y-65405000D03*
X122555000Y-51435000D03*
X118745000Y-62865000D03*
X122555000Y-52705000D03*
X126365000Y-60325000D03*
X123825000Y-60325000D03*
X121285000Y-51435000D03*
X123825000Y-52705000D03*
X123825000Y-57785000D03*
X121285000Y-62865000D03*
X126365000Y-67945000D03*
X122555000Y-53975000D03*
X121285000Y-53975000D03*
X126365000Y-65405000D03*
X126365000Y-57785000D03*
%TO.N,BOOT*%
X104648000Y-49342000D03*
X103886000Y-52324000D03*
%TO.N,SW*%
X111252000Y-50546000D03*
X106680000Y-53340000D03*
X105410000Y-54610000D03*
X106680000Y-54610000D03*
X111252000Y-51816000D03*
X108712000Y-53086000D03*
X104648000Y-51308000D03*
X111252000Y-54356000D03*
X108712000Y-50546000D03*
X109982000Y-53086000D03*
X105410000Y-53340000D03*
X111252000Y-53086000D03*
X109982000Y-51816000D03*
X109982000Y-50546000D03*
X108712000Y-54356000D03*
X109982000Y-54356000D03*
X108712000Y-51816000D03*
%TO.N,+BATT*%
X88265000Y-51435000D03*
X86995000Y-53975000D03*
X90805000Y-52705000D03*
X95250000Y-52070000D03*
X93980000Y-54610000D03*
X97790000Y-53340000D03*
X90805000Y-53975000D03*
X89535000Y-51435000D03*
X86995000Y-51435000D03*
X93980000Y-53340000D03*
X95250000Y-53340000D03*
X86995000Y-52705000D03*
X89535000Y-53975000D03*
X88265000Y-53975000D03*
X88265000Y-52705000D03*
X99060000Y-53340000D03*
X99060000Y-54610000D03*
X90805000Y-51435000D03*
X89535000Y-52705000D03*
X95250000Y-54610000D03*
X96520000Y-53340000D03*
X96520000Y-54610000D03*
X93980000Y-52070000D03*
X97790000Y-54610000D03*
%TO.N,VREG*%
X103124000Y-45720000D03*
X102235000Y-48260000D03*
X100736400Y-52400200D03*
%TD*%
D32*
%TO.N,GND*%
X99302966Y-52070000D02*
X100547965Y-53314999D01*
X99060000Y-52191998D02*
X99181998Y-52070000D01*
X99181998Y-52070000D02*
X99302966Y-52070000D01*
D33*
X108079000Y-42396500D02*
X108227500Y-42545000D01*
D32*
X99314000Y-51816000D02*
X99314000Y-51937998D01*
X99181998Y-52070000D02*
X99060000Y-52070000D01*
X100547965Y-53314999D02*
X100426997Y-53314999D01*
X99060000Y-52070000D02*
X99060000Y-52191998D01*
X99314000Y-51937998D02*
X99181998Y-52070000D01*
%TO.N,+12V*%
X104648000Y-45823500D02*
X105259500Y-45212000D01*
X123825000Y-46101000D02*
X123825000Y-50165000D01*
X102924500Y-47547000D02*
X104648000Y-45823500D01*
D33*
X102362000Y-41427500D02*
X102362000Y-46458500D01*
D32*
X122936000Y-45212000D02*
X123825000Y-46101000D01*
X100584000Y-48236500D02*
X101273500Y-47547000D01*
D33*
X101574500Y-40640000D02*
X102362000Y-41427500D01*
X102362000Y-46458500D02*
X101273500Y-47547000D01*
D32*
X105259500Y-45212000D02*
X122936000Y-45212000D01*
X101273500Y-47547000D02*
X102924500Y-47547000D01*
D33*
%TO.N,Net-(D2-K)*%
X98044000Y-42521500D02*
X98194500Y-42672000D01*
X98044000Y-40640000D02*
X98044000Y-42521500D01*
%TO.N,Net-(D3-K)*%
X103149500Y-42547000D02*
X103149500Y-40640000D01*
X103274500Y-42672000D02*
X103149500Y-42547000D01*
%TO.N,Net-(D4-K)*%
X109624500Y-42545000D02*
X109624500Y-42035000D01*
X109624500Y-42035000D02*
X108229500Y-40640000D01*
D32*
%TO.N,Net-(R7-Pad2)*%
X96520000Y-48236500D02*
X98552000Y-48236500D01*
%TO.N,Net-(U1-FREQ)*%
X101847937Y-50806063D02*
X101871437Y-50806063D01*
X101871437Y-50806063D02*
X102616000Y-50061500D01*
X101847937Y-52705000D02*
X101847937Y-50806063D01*
%TO.N,BOOT*%
X103886000Y-52324000D02*
X103505000Y-52705000D01*
X103505000Y-52705000D02*
X103348315Y-52705000D01*
%TO.N,FB*%
X101347811Y-52705000D02*
X101347811Y-50801811D01*
X101347811Y-50801811D02*
X100607500Y-50061500D01*
X100584000Y-50061500D02*
X98552000Y-50061500D01*
X100607500Y-50061500D02*
X100584000Y-50061500D01*
%TO.N,+BATT*%
X103898922Y-53314999D02*
X103648035Y-53314999D01*
X105664000Y-52578000D02*
X104635921Y-52578000D01*
X106680000Y-48156500D02*
X106680000Y-51562000D01*
X102707800Y-53314999D02*
X102098000Y-53924799D01*
X104635921Y-52578000D02*
X103898922Y-53314999D01*
X103648035Y-53314999D02*
X102707800Y-53314999D01*
D33*
X96469000Y-40640000D02*
X93685000Y-40640000D01*
D32*
X106680000Y-51562000D02*
X105664000Y-52578000D01*
D33*
X93685000Y-40640000D02*
X89670000Y-44655000D01*
D32*
%TO.N,Net-(U1-VOUT)*%
X102919000Y-50751000D02*
X102348063Y-51321937D01*
X104648000Y-47648500D02*
X103493000Y-48803500D01*
X103493000Y-50507796D02*
X103249796Y-50751000D01*
X103249796Y-50751000D02*
X102919000Y-50751000D01*
X103493000Y-48803500D02*
X103493000Y-50507796D01*
X102348063Y-51321937D02*
X102348063Y-52705000D01*
%TO.N,VREG*%
X100847685Y-52511485D02*
X100847685Y-52705000D01*
X104648000Y-44196000D02*
X104648000Y-41402000D01*
X100736400Y-52288606D02*
X99615794Y-51168000D01*
X98184000Y-51168000D02*
X97282000Y-52070000D01*
X104648000Y-41402000D02*
X105410000Y-40640000D01*
X99615794Y-51168000D02*
X98184000Y-51168000D01*
X105410000Y-40640000D02*
X106654500Y-40640000D01*
X103124000Y-45720000D02*
X104648000Y-44196000D01*
X100736400Y-52400200D02*
X100736400Y-52288606D01*
X100736400Y-52400200D02*
X100847685Y-52511485D01*
%TO.N,PGD*%
X105803000Y-47208500D02*
X106680000Y-46331500D01*
X104140000Y-50292000D02*
X105033796Y-50292000D01*
X102848189Y-52705000D02*
X102848189Y-51583811D01*
X105803000Y-49522796D02*
X105803000Y-47208500D01*
X105033796Y-50292000D02*
X105803000Y-49522796D01*
X102848189Y-51583811D02*
X104140000Y-50292000D01*
%TO.N,Net-(R8-Pad2)*%
X94488000Y-50061500D02*
X96520000Y-50061500D01*
%TD*%
%TA.AperFunction,Conductor*%
%TO.N,GND*%
G36*
X129972736Y-39743726D02*
G01*
X130262796Y-39761271D01*
X130277657Y-39763075D01*
X130366059Y-39779276D01*
X130559798Y-39814780D01*
X130574335Y-39818363D01*
X130848172Y-39903695D01*
X130862163Y-39909000D01*
X131123743Y-40026727D01*
X131136989Y-40033680D01*
X131382465Y-40182075D01*
X131394776Y-40190573D01*
X131620573Y-40367473D01*
X131631781Y-40377403D01*
X131834596Y-40580218D01*
X131844526Y-40591426D01*
X131964481Y-40744538D01*
X132021422Y-40817217D01*
X132029926Y-40829537D01*
X132120125Y-40978745D01*
X132178316Y-41075004D01*
X132185275Y-41088263D01*
X132302997Y-41349831D01*
X132308306Y-41363832D01*
X132393635Y-41637663D01*
X132397219Y-41652201D01*
X132448923Y-41934340D01*
X132450728Y-41949205D01*
X132468274Y-42239263D01*
X132468500Y-42246750D01*
X132468500Y-72942249D01*
X132468274Y-72949736D01*
X132450728Y-73239794D01*
X132448923Y-73254659D01*
X132397219Y-73536798D01*
X132393635Y-73551336D01*
X132308306Y-73825167D01*
X132302997Y-73839168D01*
X132185275Y-74100736D01*
X132178316Y-74113995D01*
X132029928Y-74359459D01*
X132021422Y-74371782D01*
X131844526Y-74597573D01*
X131834596Y-74608781D01*
X131631781Y-74811596D01*
X131620573Y-74821526D01*
X131394782Y-74998422D01*
X131382459Y-75006928D01*
X131136995Y-75155316D01*
X131123736Y-75162275D01*
X130862168Y-75279997D01*
X130848167Y-75285306D01*
X130574336Y-75370635D01*
X130559798Y-75374219D01*
X130277659Y-75425923D01*
X130262794Y-75427728D01*
X129972736Y-75445274D01*
X129965249Y-75445500D01*
X74377751Y-75445500D01*
X74370264Y-75445274D01*
X74080205Y-75427728D01*
X74065340Y-75425923D01*
X73783201Y-75374219D01*
X73768663Y-75370635D01*
X73494832Y-75285306D01*
X73480831Y-75279997D01*
X73219263Y-75162275D01*
X73206004Y-75155316D01*
X72960540Y-75006928D01*
X72948217Y-74998422D01*
X72876946Y-74942585D01*
X72722426Y-74821526D01*
X72711218Y-74811596D01*
X72508403Y-74608781D01*
X72498473Y-74597573D01*
X72321573Y-74371776D01*
X72313075Y-74359465D01*
X72164680Y-74113989D01*
X72157727Y-74100743D01*
X72040000Y-73839163D01*
X72034693Y-73825167D01*
X71949364Y-73551336D01*
X71945780Y-73536798D01*
X71894076Y-73254659D01*
X71892271Y-73239794D01*
X71874726Y-72949736D01*
X71874500Y-72942249D01*
X71874500Y-72600131D01*
X108704500Y-72600131D01*
X108704500Y-74689856D01*
X108704502Y-74689882D01*
X108707413Y-74714987D01*
X108707415Y-74714991D01*
X108752793Y-74817764D01*
X108752794Y-74817765D01*
X108832235Y-74897206D01*
X108935009Y-74942585D01*
X108960135Y-74945500D01*
X109949864Y-74945499D01*
X109949879Y-74945497D01*
X109949882Y-74945497D01*
X109974987Y-74942586D01*
X109974988Y-74942585D01*
X109974991Y-74942585D01*
X110077765Y-74897206D01*
X110157206Y-74817765D01*
X110202585Y-74714991D01*
X110205500Y-74689865D01*
X110205499Y-72600136D01*
X110205498Y-72600131D01*
X122204500Y-72600131D01*
X122204500Y-74689856D01*
X122204502Y-74689882D01*
X122207413Y-74714987D01*
X122207415Y-74714991D01*
X122252793Y-74817764D01*
X122252794Y-74817765D01*
X122332235Y-74897206D01*
X122435009Y-74942585D01*
X122460135Y-74945500D01*
X123449864Y-74945499D01*
X123449879Y-74945497D01*
X123449882Y-74945497D01*
X123474987Y-74942586D01*
X123474988Y-74942585D01*
X123474991Y-74942585D01*
X123577765Y-74897206D01*
X123657206Y-74817765D01*
X123702585Y-74714991D01*
X123705500Y-74689865D01*
X123705499Y-72600136D01*
X123705497Y-72600117D01*
X123702586Y-72575012D01*
X123702585Y-72575010D01*
X123702585Y-72575009D01*
X123657206Y-72472235D01*
X123577765Y-72392794D01*
X123577763Y-72392793D01*
X123474992Y-72347415D01*
X123449865Y-72344500D01*
X122460143Y-72344500D01*
X122460117Y-72344502D01*
X122435012Y-72347413D01*
X122435008Y-72347415D01*
X122332235Y-72392793D01*
X122252794Y-72472234D01*
X122207415Y-72575006D01*
X122207415Y-72575008D01*
X122204500Y-72600131D01*
X110205498Y-72600131D01*
X110205497Y-72600117D01*
X110202586Y-72575012D01*
X110202585Y-72575010D01*
X110202585Y-72575009D01*
X110157206Y-72472235D01*
X110077765Y-72392794D01*
X110077763Y-72392793D01*
X109974992Y-72347415D01*
X109949865Y-72344500D01*
X108960143Y-72344500D01*
X108960117Y-72344502D01*
X108935012Y-72347413D01*
X108935008Y-72347415D01*
X108832235Y-72392793D01*
X108752794Y-72472234D01*
X108707415Y-72575006D01*
X108707415Y-72575008D01*
X108704500Y-72600131D01*
X71874500Y-72600131D01*
X71874500Y-66549731D01*
X110055000Y-66549731D01*
X110055000Y-67145000D01*
X111347986Y-67145000D01*
X111288242Y-67328874D01*
X111255000Y-67538753D01*
X111255000Y-67751247D01*
X111288242Y-67961126D01*
X111347986Y-68145000D01*
X110055000Y-68145000D01*
X110055000Y-68740268D01*
X110065215Y-68884958D01*
X110065217Y-68884968D01*
X110119313Y-69125165D01*
X110119315Y-69125172D01*
X110211244Y-69353585D01*
X110338620Y-69564289D01*
X110338627Y-69564299D01*
X110498153Y-69751846D01*
X110685700Y-69911372D01*
X110685710Y-69911379D01*
X110896414Y-70038755D01*
X111124827Y-70130684D01*
X111124834Y-70130686D01*
X111365031Y-70184782D01*
X111365041Y-70184784D01*
X111509731Y-70194999D01*
X111509734Y-70195000D01*
X112105000Y-70195000D01*
X112105000Y-68902014D01*
X112288874Y-68961758D01*
X112498753Y-68995000D01*
X112711247Y-68995000D01*
X112921126Y-68961758D01*
X113105000Y-68902014D01*
X113105000Y-70195000D01*
X113700266Y-70195000D01*
X113700268Y-70194999D01*
X113844958Y-70184784D01*
X113844968Y-70184782D01*
X114085165Y-70130686D01*
X114085172Y-70130684D01*
X114313585Y-70038755D01*
X114524289Y-69911379D01*
X114524299Y-69911372D01*
X114711846Y-69751846D01*
X114871372Y-69564299D01*
X114871379Y-69564289D01*
X114998755Y-69353585D01*
X115090684Y-69125172D01*
X115090686Y-69125165D01*
X115144782Y-68884968D01*
X115144784Y-68884958D01*
X115154999Y-68740268D01*
X115155000Y-68740266D01*
X115155000Y-68145000D01*
X113862014Y-68145000D01*
X113921758Y-67961126D01*
X113955000Y-67751247D01*
X113955000Y-67538753D01*
X113921758Y-67328874D01*
X113862014Y-67145000D01*
X115155000Y-67145000D01*
X115155000Y-66549734D01*
X115154999Y-66549731D01*
X115144784Y-66405041D01*
X115144782Y-66405031D01*
X115090686Y-66164834D01*
X115090684Y-66164827D01*
X114998755Y-65936414D01*
X114871379Y-65725710D01*
X114871372Y-65725700D01*
X114711846Y-65538153D01*
X114524299Y-65378627D01*
X114524289Y-65378620D01*
X114313585Y-65251244D01*
X114085172Y-65159315D01*
X114085165Y-65159313D01*
X113844968Y-65105217D01*
X113844958Y-65105215D01*
X113700268Y-65095000D01*
X113683720Y-65095000D01*
X113616681Y-65075315D01*
X113577019Y-65029543D01*
X113532434Y-65077558D01*
X113469020Y-65095000D01*
X113105000Y-65095000D01*
X113105000Y-66387985D01*
X112921126Y-66328242D01*
X112711247Y-66295000D01*
X112498753Y-66295000D01*
X112288874Y-66328242D01*
X112105000Y-66387985D01*
X112105000Y-65095000D01*
X111509731Y-65095000D01*
X111365041Y-65105215D01*
X111365031Y-65105217D01*
X111124834Y-65159313D01*
X111124827Y-65159315D01*
X110896414Y-65251244D01*
X110685710Y-65378620D01*
X110685700Y-65378627D01*
X110498153Y-65538153D01*
X110338627Y-65725700D01*
X110338620Y-65725710D01*
X110211244Y-65936414D01*
X110119315Y-66164827D01*
X110119313Y-66164834D01*
X110065217Y-66405031D01*
X110065215Y-66405041D01*
X110055000Y-66549731D01*
X71874500Y-66549731D01*
X71874500Y-64567131D01*
X72874500Y-64567131D01*
X72874500Y-65556856D01*
X72874502Y-65556882D01*
X72877413Y-65581987D01*
X72877415Y-65581991D01*
X72922793Y-65684764D01*
X72922794Y-65684765D01*
X73002235Y-65764206D01*
X73105009Y-65809585D01*
X73130135Y-65812500D01*
X75219864Y-65812499D01*
X75219879Y-65812497D01*
X75219882Y-65812497D01*
X75244987Y-65809586D01*
X75244988Y-65809585D01*
X75244991Y-65809585D01*
X75347765Y-65764206D01*
X75427206Y-65684765D01*
X75472585Y-65581991D01*
X75475500Y-65556865D01*
X75475499Y-64567136D01*
X75475497Y-64567117D01*
X75472586Y-64542012D01*
X75472585Y-64542010D01*
X75472585Y-64542009D01*
X75427206Y-64439235D01*
X75347765Y-64359794D01*
X75347763Y-64359793D01*
X75244992Y-64314415D01*
X75219865Y-64311500D01*
X73130143Y-64311500D01*
X73130117Y-64311502D01*
X73105012Y-64314413D01*
X73105008Y-64314415D01*
X73002235Y-64359793D01*
X72922794Y-64439234D01*
X72877415Y-64542006D01*
X72877415Y-64542008D01*
X72874500Y-64567131D01*
X71874500Y-64567131D01*
X71874500Y-60816731D01*
X77625000Y-60816731D01*
X77625000Y-61412000D01*
X78917986Y-61412000D01*
X78858242Y-61595874D01*
X78825000Y-61805753D01*
X78825000Y-62018247D01*
X78858242Y-62228126D01*
X78917986Y-62412000D01*
X77625000Y-62412000D01*
X77625000Y-63007268D01*
X77635215Y-63151958D01*
X77635217Y-63151968D01*
X77689313Y-63392165D01*
X77689315Y-63392172D01*
X77781244Y-63620585D01*
X77908620Y-63831289D01*
X77908627Y-63831299D01*
X78068153Y-64018846D01*
X78255700Y-64178372D01*
X78255710Y-64178379D01*
X78466414Y-64305755D01*
X78694827Y-64397684D01*
X78694834Y-64397686D01*
X78935031Y-64451782D01*
X78935041Y-64451784D01*
X79079731Y-64461999D01*
X79079734Y-64462000D01*
X79675000Y-64462000D01*
X79675000Y-63169014D01*
X79858874Y-63228758D01*
X80068753Y-63262000D01*
X80281247Y-63262000D01*
X80491126Y-63228758D01*
X80675000Y-63169014D01*
X80675000Y-64462000D01*
X81270266Y-64462000D01*
X81270268Y-64461999D01*
X81414958Y-64451784D01*
X81414968Y-64451782D01*
X81655165Y-64397686D01*
X81655172Y-64397684D01*
X81883585Y-64305755D01*
X82058547Y-64199986D01*
X113020001Y-64199986D01*
X113030494Y-64302697D01*
X113085641Y-64469119D01*
X113085643Y-64469124D01*
X113177684Y-64618345D01*
X113301654Y-64742315D01*
X113450875Y-64834356D01*
X113450880Y-64834358D01*
X113508024Y-64853294D01*
X113565469Y-64893067D01*
X113576450Y-64919480D01*
X113590007Y-64889797D01*
X113595000Y-64885227D01*
X113595000Y-64882114D01*
X114595000Y-64882114D01*
X114739119Y-64834358D01*
X114739124Y-64834356D01*
X114888345Y-64742315D01*
X115012315Y-64618345D01*
X115104356Y-64469124D01*
X115104358Y-64469119D01*
X115159505Y-64302697D01*
X115159506Y-64302690D01*
X115169999Y-64199986D01*
X115170000Y-64199973D01*
X115170000Y-64000000D01*
X114595000Y-64000000D01*
X114595000Y-64882114D01*
X113595000Y-64882114D01*
X113595000Y-64000000D01*
X113020001Y-64000000D01*
X113020001Y-64199986D01*
X82058547Y-64199986D01*
X82094289Y-64178379D01*
X82094299Y-64178372D01*
X82281846Y-64018846D01*
X82441372Y-63831299D01*
X82441379Y-63831289D01*
X82568755Y-63620585D01*
X82660684Y-63392172D01*
X82660686Y-63392165D01*
X82714782Y-63151968D01*
X82714784Y-63151958D01*
X82724999Y-63007268D01*
X82725000Y-63007266D01*
X82725000Y-62800013D01*
X113020000Y-62800013D01*
X113020000Y-63000000D01*
X113595000Y-63000000D01*
X113595000Y-62117884D01*
X113450879Y-62165641D01*
X113301654Y-62257684D01*
X113177684Y-62381654D01*
X113085643Y-62530875D01*
X113085641Y-62530880D01*
X113030494Y-62697302D01*
X113030493Y-62697309D01*
X113020000Y-62800013D01*
X82725000Y-62800013D01*
X82725000Y-62412000D01*
X81432014Y-62412000D01*
X81491758Y-62228126D01*
X81525000Y-62018247D01*
X81525000Y-61805753D01*
X81491758Y-61595874D01*
X81455728Y-61484986D01*
X114128001Y-61484986D01*
X114138494Y-61587697D01*
X114193641Y-61754119D01*
X114193643Y-61754124D01*
X114285684Y-61903345D01*
X114409654Y-62027315D01*
X114457780Y-62056999D01*
X114457781Y-62057000D01*
X114471000Y-62057000D01*
X114538039Y-62076685D01*
X114583794Y-62129489D01*
X114595000Y-62181000D01*
X114595000Y-63000000D01*
X115169999Y-63000000D01*
X115169999Y-62800028D01*
X115169998Y-62800013D01*
X115159505Y-62697302D01*
X115104358Y-62530880D01*
X115104356Y-62530875D01*
X115012315Y-62381654D01*
X114888345Y-62257684D01*
X114840219Y-62228000D01*
X114752000Y-62228000D01*
X114684961Y-62208315D01*
X114639206Y-62155511D01*
X114628000Y-62104000D01*
X114628000Y-61460000D01*
X114128001Y-61460000D01*
X114128001Y-61484986D01*
X81455728Y-61484986D01*
X81432014Y-61412000D01*
X82725000Y-61412000D01*
X82725000Y-60816734D01*
X82724999Y-60816731D01*
X82714784Y-60672041D01*
X82714782Y-60672031D01*
X82661402Y-60435013D01*
X114128000Y-60435013D01*
X114128000Y-60460000D01*
X114628000Y-60460000D01*
X114628000Y-59777737D01*
X114558879Y-59800641D01*
X114409654Y-59892684D01*
X114285684Y-60016654D01*
X114193643Y-60165875D01*
X114193641Y-60165880D01*
X114138494Y-60332302D01*
X114138493Y-60332309D01*
X114128000Y-60435013D01*
X82661402Y-60435013D01*
X82660686Y-60431834D01*
X82660684Y-60431827D01*
X82568755Y-60203414D01*
X82441379Y-59992710D01*
X82441372Y-59992700D01*
X82281846Y-59805153D01*
X82094299Y-59645627D01*
X82094289Y-59645620D01*
X81883585Y-59518244D01*
X81655172Y-59426315D01*
X81655165Y-59426313D01*
X81414968Y-59372217D01*
X81414958Y-59372215D01*
X81270268Y-59362000D01*
X80675000Y-59362000D01*
X80675000Y-60654985D01*
X80491126Y-60595242D01*
X80281247Y-60562000D01*
X80068753Y-60562000D01*
X79858874Y-60595242D01*
X79675000Y-60654985D01*
X79675000Y-59362000D01*
X79079731Y-59362000D01*
X78935041Y-59372215D01*
X78935031Y-59372217D01*
X78694834Y-59426313D01*
X78694827Y-59426315D01*
X78466414Y-59518244D01*
X78255710Y-59645620D01*
X78255700Y-59645627D01*
X78068153Y-59805153D01*
X77908627Y-59992700D01*
X77908620Y-59992710D01*
X77781244Y-60203414D01*
X77689315Y-60431827D01*
X77689313Y-60431834D01*
X77635217Y-60672031D01*
X77635215Y-60672041D01*
X77625000Y-60816731D01*
X71874500Y-60816731D01*
X71874500Y-58314500D01*
X71894185Y-58247461D01*
X71946989Y-58201706D01*
X71996266Y-58190986D01*
X86615001Y-58190986D01*
X86625494Y-58293697D01*
X86680641Y-58460119D01*
X86680643Y-58460124D01*
X86772684Y-58609345D01*
X86896654Y-58733315D01*
X87045875Y-58825356D01*
X87045880Y-58825358D01*
X87212302Y-58880505D01*
X87212309Y-58880506D01*
X87315019Y-58890999D01*
X87764999Y-58890999D01*
X88765000Y-58890999D01*
X89214972Y-58890999D01*
X89214986Y-58890998D01*
X89317697Y-58880505D01*
X89484119Y-58825358D01*
X89484124Y-58825356D01*
X89633345Y-58733315D01*
X89757315Y-58609345D01*
X89849356Y-58460124D01*
X89849358Y-58460119D01*
X89904505Y-58293697D01*
X89904506Y-58293690D01*
X89914999Y-58190986D01*
X89915000Y-58190973D01*
X89915000Y-57641000D01*
X88765000Y-57641000D01*
X88765000Y-58890999D01*
X87764999Y-58890999D01*
X87765000Y-58890998D01*
X87765000Y-57641000D01*
X86615001Y-57641000D01*
X86615001Y-58190986D01*
X71996266Y-58190986D01*
X71998500Y-58190500D01*
X82552991Y-58190500D01*
X82553000Y-58190500D01*
X82639199Y-58181232D01*
X82690710Y-58170026D01*
X82762360Y-58147310D01*
X82870057Y-58080250D01*
X82922861Y-58034495D01*
X82992042Y-57956923D01*
X83046389Y-57842285D01*
X83066074Y-57775246D01*
X83082500Y-57661000D01*
X83082500Y-56822000D01*
X93051737Y-56822000D01*
X93074641Y-56891120D01*
X93166684Y-57040345D01*
X93290654Y-57164315D01*
X93439875Y-57256356D01*
X93439880Y-57256358D01*
X93606302Y-57311505D01*
X93606309Y-57311506D01*
X93709019Y-57321999D01*
X94734000Y-57321999D01*
X94758972Y-57321999D01*
X94758986Y-57321998D01*
X94861697Y-57311505D01*
X95028119Y-57256358D01*
X95028124Y-57256356D01*
X95183491Y-57160525D01*
X95184955Y-57162898D01*
X95237858Y-57141543D01*
X95306503Y-57154568D01*
X95316299Y-57160864D01*
X95316509Y-57160525D01*
X95471875Y-57256356D01*
X95471880Y-57256358D01*
X95638302Y-57311505D01*
X95638309Y-57311506D01*
X95741019Y-57321999D01*
X96766000Y-57321999D01*
X96790972Y-57321999D01*
X96790986Y-57321998D01*
X96893697Y-57311505D01*
X97060119Y-57256358D01*
X97060124Y-57256356D01*
X97215491Y-57160525D01*
X97216955Y-57162898D01*
X97269858Y-57141543D01*
X97338503Y-57154568D01*
X97348299Y-57160864D01*
X97348509Y-57160525D01*
X97503875Y-57256356D01*
X97503880Y-57256358D01*
X97670302Y-57311505D01*
X97670309Y-57311506D01*
X97773019Y-57321999D01*
X98798000Y-57321999D01*
X98822972Y-57321999D01*
X98822986Y-57321998D01*
X98925697Y-57311505D01*
X99092119Y-57256358D01*
X99092124Y-57256356D01*
X99241345Y-57164315D01*
X99365315Y-57040345D01*
X99457358Y-56891120D01*
X99480263Y-56822000D01*
X98798000Y-56822000D01*
X98798000Y-57321999D01*
X97773019Y-57321999D01*
X97798000Y-57321998D01*
X97798000Y-56822000D01*
X96766000Y-56822000D01*
X96766000Y-57321999D01*
X95741019Y-57321999D01*
X95766000Y-57321998D01*
X95766000Y-56822000D01*
X94734000Y-56822000D01*
X94734000Y-57321999D01*
X93709019Y-57321999D01*
X93734000Y-57321998D01*
X93734000Y-56822000D01*
X93051737Y-56822000D01*
X83082500Y-56822000D01*
X83082500Y-55938741D01*
X83073718Y-55854808D01*
X83063093Y-55804588D01*
X83041670Y-55734951D01*
X83041669Y-55734950D01*
X83041669Y-55734948D01*
X82987356Y-55645460D01*
X82975846Y-55626495D01*
X82960654Y-55608552D01*
X82932357Y-55544669D01*
X82943091Y-55475628D01*
X82989447Y-55423351D01*
X83056707Y-55404434D01*
X83090233Y-55409452D01*
X83095919Y-55411122D01*
X83095923Y-55411122D01*
X83095928Y-55411124D01*
X83182000Y-55423500D01*
X83182003Y-55423500D01*
X86722477Y-55423500D01*
X86789516Y-55443185D01*
X86835271Y-55495989D01*
X86845215Y-55565147D01*
X86816190Y-55628703D01*
X86810158Y-55635181D01*
X86772684Y-55672654D01*
X86680643Y-55821875D01*
X86680641Y-55821880D01*
X86625494Y-55988302D01*
X86625493Y-55988309D01*
X86615000Y-56091013D01*
X86615000Y-56641000D01*
X89914999Y-56641000D01*
X89914999Y-56091028D01*
X89914998Y-56091013D01*
X89904505Y-55988302D01*
X89849358Y-55821880D01*
X89849356Y-55821875D01*
X89757315Y-55672654D01*
X89719842Y-55635181D01*
X89686357Y-55573858D01*
X89691341Y-55504166D01*
X89733213Y-55448233D01*
X89798677Y-55423816D01*
X89807523Y-55423500D01*
X93055630Y-55423500D01*
X93122669Y-55443185D01*
X93168424Y-55495989D01*
X93178368Y-55565147D01*
X93161169Y-55612597D01*
X93074641Y-55752879D01*
X93051737Y-55822000D01*
X99480262Y-55822000D01*
X99457358Y-55752879D01*
X99370831Y-55612597D01*
X99352391Y-55545205D01*
X99373313Y-55478541D01*
X99426955Y-55433771D01*
X99476370Y-55423500D01*
X99522297Y-55423500D01*
X99522904Y-55423494D01*
X99528252Y-55423442D01*
X99533067Y-55423348D01*
X99624488Y-55407469D01*
X99631642Y-55405062D01*
X99701459Y-55402345D01*
X99761662Y-55437805D01*
X99766951Y-55448288D01*
X99568000Y-56642000D01*
X104648000Y-56642000D01*
X104445280Y-55425681D01*
X104460797Y-55409014D01*
X104528495Y-55391732D01*
X104559010Y-55396676D01*
X104568601Y-55399492D01*
X104608203Y-55411122D01*
X104608207Y-55411122D01*
X104608212Y-55411124D01*
X104694284Y-55423500D01*
X104694287Y-55423500D01*
X108080000Y-55423500D01*
X108147039Y-55443185D01*
X108192794Y-55495989D01*
X108204000Y-55547500D01*
X108204000Y-59182000D01*
X111760000Y-59182000D01*
X117635543Y-59182000D01*
X117702582Y-59201685D01*
X117748337Y-59254489D01*
X117758281Y-59323647D01*
X117729256Y-59387203D01*
X117678876Y-59422182D01*
X117661950Y-59428494D01*
X117606802Y-59455666D01*
X117524150Y-59531650D01*
X117524147Y-59531654D01*
X117482271Y-59587593D01*
X117450571Y-59640262D01*
X117450569Y-59640268D01*
X117422119Y-59748875D01*
X117422118Y-59748880D01*
X117417079Y-59819346D01*
X117392662Y-59884810D01*
X117336729Y-59926682D01*
X117293395Y-59934500D01*
X116734898Y-59934500D01*
X116695853Y-59939188D01*
X116646438Y-59945122D01*
X116505656Y-60000639D01*
X116385077Y-60092077D01*
X116288514Y-60219416D01*
X116286686Y-60218030D01*
X116245361Y-60258326D01*
X116176906Y-60272315D01*
X116111755Y-60247073D01*
X116070593Y-60190615D01*
X116069607Y-60187755D01*
X116062359Y-60165882D01*
X116062356Y-60165875D01*
X115970315Y-60016654D01*
X115846345Y-59892684D01*
X115697120Y-59800641D01*
X115628000Y-59777737D01*
X115628000Y-62142262D01*
X115697118Y-62119359D01*
X115846345Y-62027315D01*
X115970317Y-61903343D01*
X115992961Y-61866632D01*
X116044909Y-61819907D01*
X116113871Y-61808684D01*
X116177953Y-61836527D01*
X116216810Y-61894596D01*
X116222500Y-61931728D01*
X116222500Y-62159638D01*
X116224250Y-62192281D01*
X116224254Y-62192334D01*
X116227081Y-62218625D01*
X116227085Y-62218655D01*
X116227920Y-62225660D01*
X116228724Y-62228126D01*
X116233399Y-62242474D01*
X116239500Y-62280891D01*
X116239500Y-62544301D01*
X116230854Y-62589791D01*
X116180123Y-62718434D01*
X116180123Y-62718436D01*
X116169500Y-62806898D01*
X116169500Y-64193102D01*
X116170327Y-64199986D01*
X116180123Y-64281565D01*
X116221376Y-64386175D01*
X116227658Y-64455762D01*
X116195321Y-64517698D01*
X116168623Y-64538703D01*
X116077432Y-64592036D01*
X116077428Y-64592038D01*
X116024623Y-64637794D01*
X116024612Y-64637804D01*
X115982451Y-64682520D01*
X115982445Y-64682529D01*
X115931560Y-64782603D01*
X115911877Y-64849634D01*
X115911876Y-64849641D01*
X115899500Y-64935713D01*
X115899500Y-69726000D01*
X115899501Y-69726009D01*
X115906481Y-69790935D01*
X115906483Y-69790947D01*
X115917688Y-69842453D01*
X115928644Y-69880654D01*
X115928646Y-69880658D01*
X115985325Y-69977571D01*
X116031077Y-70030372D01*
X116031081Y-70030376D01*
X116031091Y-70030387D01*
X116075807Y-70072548D01*
X116075809Y-70072549D01*
X116075813Y-70072553D01*
X116175889Y-70123439D01*
X116242928Y-70143124D01*
X116329000Y-70155500D01*
X116329003Y-70155500D01*
X118261248Y-70155500D01*
X118261251Y-70155500D01*
X118337865Y-70145737D01*
X118398071Y-70130140D01*
X118446864Y-70112977D01*
X118539028Y-70048863D01*
X118551382Y-70036329D01*
X118560480Y-70027976D01*
X118564545Y-70024599D01*
X118564551Y-70024596D01*
X118749884Y-69839261D01*
X118811205Y-69805778D01*
X118880897Y-69810762D01*
X118892409Y-69815732D01*
X118903573Y-69821238D01*
X119195341Y-69920280D01*
X119497540Y-69980391D01*
X119805000Y-70000543D01*
X120112460Y-69980391D01*
X120414659Y-69920280D01*
X120706427Y-69821238D01*
X120717585Y-69815734D01*
X120786412Y-69803734D01*
X120850805Y-69830851D01*
X120860114Y-69839263D01*
X121045100Y-70024249D01*
X121050050Y-70029565D01*
X121050819Y-70030366D01*
X121050824Y-70030372D01*
X121050827Y-70030375D01*
X121050837Y-70030385D01*
X121095554Y-70072548D01*
X121095556Y-70072549D01*
X121095560Y-70072553D01*
X121195636Y-70123439D01*
X121262675Y-70143124D01*
X121348747Y-70155500D01*
X121348750Y-70155500D01*
X128780990Y-70155500D01*
X128781000Y-70155500D01*
X128845941Y-70148518D01*
X128897452Y-70137312D01*
X128935658Y-70126354D01*
X129032571Y-70069675D01*
X129085375Y-70023920D01*
X129085382Y-70023912D01*
X129085387Y-70023908D01*
X129126418Y-69980391D01*
X129127553Y-69979187D01*
X129178439Y-69879111D01*
X129198124Y-69812072D01*
X129210500Y-69726000D01*
X129210500Y-49654000D01*
X129203518Y-49589059D01*
X129192312Y-49537548D01*
X129181354Y-49499342D01*
X129124675Y-49402429D01*
X129078920Y-49349625D01*
X129078918Y-49349623D01*
X129078908Y-49349612D01*
X129034192Y-49307451D01*
X129034189Y-49307449D01*
X129034187Y-49307447D01*
X128934111Y-49256561D01*
X128934110Y-49256560D01*
X128934109Y-49256560D01*
X128867078Y-49236877D01*
X128867072Y-49236876D01*
X128781000Y-49224500D01*
X128780997Y-49224500D01*
X124376500Y-49224500D01*
X124309461Y-49204815D01*
X124263706Y-49152011D01*
X124252500Y-49100500D01*
X124252500Y-46044721D01*
X124252500Y-46044719D01*
X124223367Y-45935991D01*
X124167085Y-45838509D01*
X124087491Y-45758915D01*
X123198491Y-44869915D01*
X123149750Y-44841774D01*
X123101010Y-44813633D01*
X123045721Y-44798819D01*
X122992281Y-44784500D01*
X105315782Y-44784500D01*
X105203219Y-44784500D01*
X105094489Y-44813633D01*
X104997009Y-44869915D01*
X104997006Y-44869917D01*
X104892743Y-44974181D01*
X104831420Y-45007666D01*
X104805062Y-45010500D01*
X104737438Y-45010500D01*
X104670399Y-44990815D01*
X104624644Y-44938011D01*
X104614700Y-44868853D01*
X104643725Y-44805297D01*
X104649757Y-44798819D01*
X104990081Y-44458495D01*
X104990084Y-44458492D01*
X105046367Y-44361009D01*
X105046369Y-44361003D01*
X105049701Y-44348570D01*
X105062600Y-44300426D01*
X105075500Y-44252281D01*
X105075500Y-43045000D01*
X106787003Y-43045000D01*
X106797494Y-43147697D01*
X106852641Y-43314119D01*
X106852643Y-43314124D01*
X106944684Y-43463345D01*
X107068654Y-43587315D01*
X107217882Y-43679360D01*
X107299499Y-43706404D01*
X107299500Y-43706404D01*
X107299500Y-43045000D01*
X106787003Y-43045000D01*
X105075500Y-43045000D01*
X105075500Y-41630438D01*
X105095185Y-41563399D01*
X105111819Y-41542757D01*
X105550757Y-41103819D01*
X105612080Y-41070334D01*
X105638438Y-41067500D01*
X105860722Y-41067500D01*
X105927761Y-41087185D01*
X105973516Y-41139989D01*
X105976076Y-41146010D01*
X105978883Y-41153128D01*
X105978886Y-41153134D01*
X106065132Y-41266867D01*
X106172054Y-41347948D01*
X106178868Y-41353115D01*
X106311654Y-41405479D01*
X106395098Y-41415500D01*
X106856477Y-41415500D01*
X106923516Y-41435185D01*
X106969271Y-41487989D01*
X106979215Y-41557147D01*
X106950190Y-41620703D01*
X106944887Y-41626398D01*
X106944684Y-41626653D01*
X106852643Y-41775875D01*
X106852641Y-41775880D01*
X106797494Y-41942302D01*
X106797493Y-41942309D01*
X106787002Y-42045000D01*
X108175500Y-42045000D01*
X108242539Y-42064685D01*
X108288294Y-42117489D01*
X108299500Y-42169000D01*
X108299500Y-43706404D01*
X108381117Y-43679360D01*
X108530345Y-43587315D01*
X108654315Y-43463345D01*
X108726155Y-43346875D01*
X108778103Y-43300151D01*
X108847066Y-43288928D01*
X108911148Y-43316772D01*
X108930498Y-43337047D01*
X108969077Y-43387922D01*
X109089656Y-43479360D01*
X109089657Y-43479360D01*
X109089658Y-43479361D01*
X109230436Y-43534877D01*
X109318898Y-43545500D01*
X109318903Y-43545500D01*
X109930097Y-43545500D01*
X109930102Y-43545500D01*
X110018564Y-43534877D01*
X110159342Y-43479361D01*
X110279922Y-43387922D01*
X110371361Y-43267342D01*
X110426877Y-43126564D01*
X110437500Y-43038102D01*
X110437500Y-42051898D01*
X110426877Y-41963436D01*
X110371361Y-41822658D01*
X110371360Y-41822657D01*
X110371360Y-41822656D01*
X110279922Y-41702077D01*
X110159343Y-41610639D01*
X110018561Y-41555122D01*
X109972926Y-41549642D01*
X109930102Y-41544500D01*
X109930097Y-41544500D01*
X109751755Y-41544500D01*
X109684716Y-41524815D01*
X109664074Y-41508181D01*
X109003819Y-40847926D01*
X108970334Y-40786603D01*
X108967500Y-40760245D01*
X108967500Y-40343097D01*
X108957479Y-40259656D01*
X108957479Y-40259655D01*
X108949463Y-40239327D01*
X108905115Y-40126868D01*
X108834451Y-40033683D01*
X108818867Y-40013132D01*
X108757114Y-39966304D01*
X108715591Y-39910112D01*
X108711039Y-39840390D01*
X108744904Y-39779276D01*
X108806433Y-39746173D01*
X108832039Y-39743500D01*
X129903108Y-39743500D01*
X129965249Y-39743500D01*
X129972736Y-39743726D01*
G37*
%TD.AperFunction*%
%TA.AperFunction,Conductor*%
G36*
X101039000Y-39763185D02*
G01*
X101084755Y-39815989D01*
X101094699Y-39885147D01*
X101065674Y-39948703D01*
X101046886Y-39966304D01*
X100985132Y-40013132D01*
X100898886Y-40126865D01*
X100846520Y-40259655D01*
X100846520Y-40259656D01*
X100836500Y-40343097D01*
X100836500Y-40936902D01*
X100846520Y-41020343D01*
X100846520Y-41020344D01*
X100864693Y-41066426D01*
X100898883Y-41153128D01*
X100898886Y-41153134D01*
X100985131Y-41266866D01*
X100996355Y-41275377D01*
X101010198Y-41285874D01*
X101051721Y-41342065D01*
X101056274Y-41411786D01*
X101022410Y-41472900D01*
X100974278Y-41502384D01*
X100867878Y-41537642D01*
X100867875Y-41537643D01*
X100718654Y-41629684D01*
X100594684Y-41753654D01*
X100502643Y-41902875D01*
X100502641Y-41902880D01*
X100447494Y-42069302D01*
X100447493Y-42069309D01*
X100437002Y-42172000D01*
X101825500Y-42172000D01*
X101892539Y-42191685D01*
X101938294Y-42244489D01*
X101949500Y-42296000D01*
X101949500Y-43855742D01*
X101952919Y-43860150D01*
X101961500Y-43905476D01*
X101961500Y-46241244D01*
X101941815Y-46308283D01*
X101925181Y-46328925D01*
X101112896Y-47141209D01*
X101087217Y-47160914D01*
X101011011Y-47204913D01*
X101011005Y-47204917D01*
X100828742Y-47387181D01*
X100767419Y-47420666D01*
X100741061Y-47423500D01*
X100090898Y-47423500D01*
X100051853Y-47428188D01*
X100002438Y-47434122D01*
X99861656Y-47489639D01*
X99741077Y-47581077D01*
X99666804Y-47679022D01*
X99610611Y-47720546D01*
X99540890Y-47725097D01*
X99479776Y-47691232D01*
X99469196Y-47679022D01*
X99394922Y-47581077D01*
X99274343Y-47489639D01*
X99133561Y-47434122D01*
X99087372Y-47428576D01*
X99045102Y-47423500D01*
X98058898Y-47423500D01*
X98019853Y-47428188D01*
X97970438Y-47434122D01*
X97829656Y-47489639D01*
X97709077Y-47581077D01*
X97634804Y-47679022D01*
X97578611Y-47720546D01*
X97508890Y-47725097D01*
X97447776Y-47691232D01*
X97437196Y-47679022D01*
X97362922Y-47581077D01*
X97242343Y-47489639D01*
X97101561Y-47434122D01*
X97055372Y-47428576D01*
X97013102Y-47423500D01*
X96026898Y-47423500D01*
X95987853Y-47428188D01*
X95938438Y-47434122D01*
X95797656Y-47489639D01*
X95717570Y-47550371D01*
X95652258Y-47575194D01*
X95583895Y-47560766D01*
X95537106Y-47516662D01*
X95530320Y-47505660D01*
X95530316Y-47505655D01*
X95406345Y-47381684D01*
X95257124Y-47289643D01*
X95257119Y-47289641D01*
X95090697Y-47234494D01*
X95090690Y-47234493D01*
X94988000Y-47224002D01*
X94988000Y-48612500D01*
X94968315Y-48679539D01*
X94915511Y-48725294D01*
X94864000Y-48736500D01*
X93326595Y-48736500D01*
X93353641Y-48818119D01*
X93353643Y-48818124D01*
X93445684Y-48967345D01*
X93569655Y-49091316D01*
X93569659Y-49091319D01*
X93686124Y-49163156D01*
X93732849Y-49215104D01*
X93744070Y-49284066D01*
X93716227Y-49348148D01*
X93695953Y-49367497D01*
X93645078Y-49406077D01*
X93553639Y-49526656D01*
X93498122Y-49667438D01*
X93497617Y-49671647D01*
X93487500Y-49755898D01*
X93487500Y-50367102D01*
X93493126Y-50413954D01*
X93498122Y-50455561D01*
X93553639Y-50596343D01*
X93645077Y-50716922D01*
X93765656Y-50808360D01*
X93765657Y-50808360D01*
X93765658Y-50808361D01*
X93906436Y-50863877D01*
X93994898Y-50874500D01*
X93994903Y-50874500D01*
X94981097Y-50874500D01*
X94981102Y-50874500D01*
X95069564Y-50863877D01*
X95210342Y-50808361D01*
X95330922Y-50716922D01*
X95405196Y-50618976D01*
X95461388Y-50577454D01*
X95531109Y-50572902D01*
X95592224Y-50606767D01*
X95602804Y-50618977D01*
X95677077Y-50716922D01*
X95797656Y-50808360D01*
X95797657Y-50808360D01*
X95797658Y-50808361D01*
X95938436Y-50863877D01*
X96026898Y-50874500D01*
X96026903Y-50874500D01*
X96706092Y-50874500D01*
X96773131Y-50894185D01*
X96818886Y-50946989D01*
X96828830Y-51016147D01*
X96799805Y-51079703D01*
X96766867Y-51106585D01*
X96759659Y-51110637D01*
X96639077Y-51202077D01*
X96547639Y-51322656D01*
X96492122Y-51463438D01*
X96486965Y-51506385D01*
X96481500Y-51551898D01*
X96481500Y-51551903D01*
X96481500Y-51819173D01*
X96461815Y-51886212D01*
X96409011Y-51931967D01*
X96339853Y-51941911D01*
X96320413Y-51937497D01*
X95811187Y-51777888D01*
X95753104Y-51739054D01*
X95749898Y-51735050D01*
X95694068Y-51662291D01*
X95678282Y-51641718D01*
X95552841Y-51545464D01*
X95527810Y-51535096D01*
X95406762Y-51484956D01*
X95406760Y-51484955D01*
X95250001Y-51464318D01*
X95249999Y-51464318D01*
X95093240Y-51484955D01*
X95041503Y-51506385D01*
X94972033Y-51513852D01*
X94956965Y-51510147D01*
X92467413Y-50729840D01*
X92409330Y-50691006D01*
X92381462Y-50626934D01*
X92380500Y-50611516D01*
X92380500Y-50093682D01*
X92398858Y-50031160D01*
X92398625Y-50031042D01*
X92399258Y-50029799D01*
X92400185Y-50026643D01*
X92402858Y-50022732D01*
X92403052Y-50022350D01*
X92403056Y-50022347D01*
X92460653Y-49909306D01*
X92480500Y-49784000D01*
X92480500Y-47736500D01*
X93326595Y-47736500D01*
X93988000Y-47736500D01*
X93988000Y-47224003D01*
X93987999Y-47224002D01*
X93885302Y-47234494D01*
X93718880Y-47289641D01*
X93718875Y-47289643D01*
X93569654Y-47381684D01*
X93445684Y-47505654D01*
X93353643Y-47654875D01*
X93353641Y-47654880D01*
X93326595Y-47736500D01*
X92480500Y-47736500D01*
X92480500Y-43172000D01*
X95357003Y-43172000D01*
X95367494Y-43274697D01*
X95422641Y-43441119D01*
X95422643Y-43441124D01*
X95514684Y-43590345D01*
X95638654Y-43714315D01*
X95787882Y-43806360D01*
X95869499Y-43833404D01*
X95869500Y-43833404D01*
X95869500Y-43172000D01*
X95357003Y-43172000D01*
X92480500Y-43172000D01*
X92480500Y-42462255D01*
X92500185Y-42395216D01*
X92516819Y-42374574D01*
X93814574Y-41076819D01*
X93875897Y-41043334D01*
X93902255Y-41040500D01*
X95664575Y-41040500D01*
X95731614Y-41060185D01*
X95777369Y-41112989D01*
X95779923Y-41118995D01*
X95790722Y-41146378D01*
X95793385Y-41153132D01*
X95793386Y-41153134D01*
X95879632Y-41266867D01*
X95912452Y-41291755D01*
X95953976Y-41347948D01*
X95958527Y-41417669D01*
X95924662Y-41478783D01*
X95876532Y-41508265D01*
X95787878Y-41537642D01*
X95787875Y-41537643D01*
X95638654Y-41629684D01*
X95514684Y-41753654D01*
X95422643Y-41902875D01*
X95422641Y-41902880D01*
X95367494Y-42069302D01*
X95367493Y-42069309D01*
X95357002Y-42172000D01*
X96745500Y-42172000D01*
X96812539Y-42191685D01*
X96858294Y-42244489D01*
X96869500Y-42296000D01*
X96869500Y-43833404D01*
X96951117Y-43806360D01*
X97100345Y-43714315D01*
X97224315Y-43590345D01*
X97296155Y-43473875D01*
X97348103Y-43427151D01*
X97417066Y-43415928D01*
X97481148Y-43443772D01*
X97500498Y-43464047D01*
X97539077Y-43514922D01*
X97659656Y-43606360D01*
X97659657Y-43606360D01*
X97659658Y-43606361D01*
X97800436Y-43661877D01*
X97888898Y-43672500D01*
X97888903Y-43672500D01*
X98500097Y-43672500D01*
X98500102Y-43672500D01*
X98588564Y-43661877D01*
X98729342Y-43606361D01*
X98849922Y-43514922D01*
X98941361Y-43394342D01*
X98996877Y-43253564D01*
X99006672Y-43172000D01*
X100437003Y-43172000D01*
X100447494Y-43274697D01*
X100502641Y-43441119D01*
X100502643Y-43441124D01*
X100594684Y-43590345D01*
X100718654Y-43714315D01*
X100867882Y-43806360D01*
X100949499Y-43833404D01*
X100949500Y-43833404D01*
X100949500Y-43172000D01*
X100437003Y-43172000D01*
X99006672Y-43172000D01*
X99007500Y-43165102D01*
X99007500Y-42178898D01*
X98996877Y-42090436D01*
X98941361Y-41949658D01*
X98941360Y-41949657D01*
X98941360Y-41949656D01*
X98849922Y-41829077D01*
X98729343Y-41737639D01*
X98639166Y-41702078D01*
X98588564Y-41682123D01*
X98588562Y-41682122D01*
X98588558Y-41682121D01*
X98553715Y-41677937D01*
X98489501Y-41650400D01*
X98450368Y-41592517D01*
X98444500Y-41554822D01*
X98444500Y-41467137D01*
X98464185Y-41400098D01*
X98512688Y-41358069D01*
X98512240Y-41357271D01*
X98516141Y-41355077D01*
X98516989Y-41354343D01*
X98518870Y-41353543D01*
X98519626Y-41353117D01*
X98519632Y-41353115D01*
X98633367Y-41266867D01*
X98719615Y-41153132D01*
X98771979Y-41020346D01*
X98782000Y-40936902D01*
X98782000Y-40343098D01*
X98771979Y-40259654D01*
X98719615Y-40126868D01*
X98648951Y-40033683D01*
X98633367Y-40013132D01*
X98571614Y-39966304D01*
X98530091Y-39910112D01*
X98525539Y-39840390D01*
X98559404Y-39779276D01*
X98620933Y-39746173D01*
X98646539Y-39743500D01*
X100971961Y-39743500D01*
X101039000Y-39763185D01*
G37*
%TD.AperFunction*%
%TD*%
%TA.AperFunction,Conductor*%
%TO.N,+BATT*%
G36*
X92075000Y-50927000D02*
G01*
X96494588Y-52312244D01*
X96552670Y-52351077D01*
X96580538Y-52415149D01*
X96581500Y-52430567D01*
X96581500Y-52599269D01*
X96584353Y-52629699D01*
X96584353Y-52629701D01*
X96629206Y-52757880D01*
X96629207Y-52757882D01*
X96709850Y-52867150D01*
X96819118Y-52947793D01*
X96861845Y-52962744D01*
X96947299Y-52992646D01*
X96977730Y-52995500D01*
X96977734Y-52995500D01*
X97586270Y-52995500D01*
X97616699Y-52992646D01*
X97616701Y-52992646D01*
X97680790Y-52970219D01*
X97744882Y-52947793D01*
X97854150Y-52867150D01*
X97878838Y-52833698D01*
X97934483Y-52791448D01*
X98004139Y-52785989D01*
X98015678Y-52789003D01*
X100016030Y-53415979D01*
X100074111Y-53454812D01*
X100100558Y-53510110D01*
X100105097Y-53532928D01*
X100105097Y-53532929D01*
X100149412Y-53599251D01*
X100215734Y-53643566D01*
X100215735Y-53643567D01*
X100274212Y-53655198D01*
X100274215Y-53655199D01*
X100274217Y-53655199D01*
X100460000Y-53655199D01*
X100527039Y-53674884D01*
X100572794Y-53727688D01*
X100584000Y-53779199D01*
X100584000Y-54051505D01*
X100564315Y-54118544D01*
X100511511Y-54164299D01*
X100460000Y-54175505D01*
X100427247Y-54175505D01*
X100368770Y-54187136D01*
X100368769Y-54187137D01*
X100302446Y-54231453D01*
X100285724Y-54256479D01*
X100232110Y-54301283D01*
X100225761Y-54303271D01*
X100215719Y-54307431D01*
X100149397Y-54351746D01*
X100105082Y-54418068D01*
X100105081Y-54418069D01*
X100093450Y-54476546D01*
X100093450Y-54788500D01*
X100073765Y-54855539D01*
X100020961Y-54901294D01*
X99969450Y-54912500D01*
X99822000Y-54912500D01*
X99811859Y-54912800D01*
X99809828Y-54912861D01*
X99722031Y-54938455D01*
X99722029Y-54938456D01*
X99654027Y-54999612D01*
X99636998Y-55041093D01*
X99593328Y-55095634D01*
X99527104Y-55117906D01*
X99522289Y-55118000D01*
X83182000Y-55118000D01*
X83114961Y-55098315D01*
X83069206Y-55045511D01*
X83058000Y-54994000D01*
X83058000Y-53644831D01*
X83063024Y-53609894D01*
X83066073Y-53599507D01*
X83066072Y-53599507D01*
X83066074Y-53599504D01*
X83082500Y-53485258D01*
X83082500Y-49943266D01*
X83082499Y-49943262D01*
X83082499Y-49943246D01*
X83080353Y-49916001D01*
X83077503Y-49879805D01*
X83075862Y-49869456D01*
X83074713Y-49859745D01*
X83074380Y-49855524D01*
X83074381Y-49855512D01*
X83063055Y-49784000D01*
X92075000Y-49784000D01*
X92075000Y-50927000D01*
G37*
%TD.AperFunction*%
%TD*%
%TA.AperFunction,Conductor*%
%TO.N,GND*%
G36*
X100801394Y-55156994D02*
G01*
X100812600Y-55208505D01*
X100812600Y-55803800D01*
X103352600Y-55803800D01*
X103352600Y-55208505D01*
X103372285Y-55141466D01*
X103399366Y-55118000D01*
X104394000Y-55118000D01*
X104648000Y-56642000D01*
X99568000Y-56642000D01*
X99822000Y-55118000D01*
X100767605Y-55118000D01*
X100801394Y-55156994D01*
G37*
%TD.AperFunction*%
%TD*%
%TA.AperFunction,Conductor*%
%TO.N,+12V*%
G36*
X128848039Y-49549685D02*
G01*
X128893794Y-49602489D01*
X128905000Y-49654000D01*
X128905000Y-69726000D01*
X128885315Y-69793039D01*
X128832511Y-69838794D01*
X128781000Y-69850000D01*
X121348747Y-69850000D01*
X121281708Y-69830315D01*
X121262219Y-69807823D01*
X121261468Y-69808575D01*
X120340289Y-68887396D01*
X120512554Y-68799623D01*
X120684466Y-68674722D01*
X120834722Y-68524466D01*
X120959623Y-68352554D01*
X121047396Y-68180289D01*
X121927142Y-69060036D01*
X121927143Y-69060035D01*
X122043994Y-68875909D01*
X122044005Y-68875890D01*
X122180615Y-68585580D01*
X122180617Y-68585575D01*
X122279769Y-68280417D01*
X122339895Y-67965228D01*
X122339896Y-67965221D01*
X122360042Y-67645005D01*
X122360042Y-67644994D01*
X122339896Y-67324778D01*
X122339895Y-67324771D01*
X122279769Y-67009582D01*
X122180617Y-66704424D01*
X122180615Y-66704419D01*
X122044001Y-66414101D01*
X122043993Y-66414086D01*
X121927143Y-66229963D01*
X121047396Y-67109709D01*
X120959623Y-66937446D01*
X120834722Y-66765534D01*
X120684466Y-66615278D01*
X120512554Y-66490377D01*
X120340289Y-66402603D01*
X121221047Y-65521845D01*
X121221046Y-65521843D01*
X121174071Y-65487714D01*
X121174053Y-65487702D01*
X120892883Y-65333128D01*
X120892875Y-65333124D01*
X120594555Y-65215012D01*
X120283766Y-65135215D01*
X120283757Y-65135213D01*
X119965443Y-65095000D01*
X119644556Y-65095000D01*
X119326242Y-65135213D01*
X119326233Y-65135215D01*
X119015444Y-65215012D01*
X118717124Y-65333124D01*
X118717116Y-65333128D01*
X118435943Y-65487704D01*
X118435941Y-65487706D01*
X118388952Y-65521844D01*
X118388952Y-65521845D01*
X119269710Y-66402603D01*
X119097446Y-66490377D01*
X118925534Y-66615278D01*
X118775278Y-66765534D01*
X118650377Y-66937446D01*
X118562603Y-67109710D01*
X117682855Y-66229962D01*
X117566001Y-66414096D01*
X117565998Y-66414102D01*
X117429384Y-66704419D01*
X117429382Y-66704424D01*
X117330230Y-67009582D01*
X117270104Y-67324771D01*
X117270103Y-67324778D01*
X117249958Y-67644994D01*
X117249958Y-67645005D01*
X117270103Y-67965221D01*
X117270104Y-67965228D01*
X117330230Y-68280417D01*
X117429382Y-68585575D01*
X117429384Y-68585580D01*
X117565998Y-68875897D01*
X117566003Y-68875907D01*
X117682855Y-69060035D01*
X117682856Y-69060036D01*
X118562603Y-68180289D01*
X118650377Y-68352554D01*
X118775278Y-68524466D01*
X118925534Y-68674722D01*
X119097446Y-68799623D01*
X119269709Y-68887396D01*
X118348530Y-69808575D01*
X118347717Y-69807762D01*
X118321457Y-69834403D01*
X118261251Y-69850000D01*
X116329000Y-69850000D01*
X116261961Y-69830315D01*
X116216206Y-69777511D01*
X116205000Y-69726000D01*
X116205000Y-64935713D01*
X116224685Y-64868674D01*
X116277489Y-64822919D01*
X116346647Y-64812975D01*
X116394102Y-64830178D01*
X116400872Y-64834354D01*
X116400880Y-64834358D01*
X116545000Y-64882114D01*
X117545000Y-64882114D01*
X117689119Y-64834358D01*
X117689124Y-64834356D01*
X117838345Y-64742315D01*
X117962315Y-64618345D01*
X118054356Y-64469124D01*
X118054358Y-64469119D01*
X118109505Y-64302697D01*
X118109506Y-64302690D01*
X118119999Y-64199986D01*
X118120000Y-64199973D01*
X118120000Y-64000000D01*
X117545000Y-64000000D01*
X117545000Y-64882114D01*
X116545000Y-64882114D01*
X116545000Y-62211939D01*
X116530834Y-62185996D01*
X116528000Y-62159638D01*
X116528000Y-62073060D01*
X117528000Y-62073060D01*
X117542166Y-62099004D01*
X117545000Y-62125362D01*
X117545000Y-63000000D01*
X118119999Y-63000000D01*
X118119999Y-62800028D01*
X118119998Y-62800013D01*
X118109505Y-62697302D01*
X118054358Y-62530880D01*
X118054356Y-62530875D01*
X117962315Y-62381654D01*
X117838345Y-62257684D01*
X117772434Y-62217030D01*
X117725710Y-62165082D01*
X117714487Y-62096119D01*
X117742331Y-62032037D01*
X117749850Y-62023809D01*
X117870317Y-61903342D01*
X117962356Y-61754124D01*
X117962358Y-61754119D01*
X118017505Y-61587697D01*
X118017506Y-61587690D01*
X118027999Y-61484986D01*
X118028000Y-61484973D01*
X118028000Y-61460000D01*
X117528000Y-61460000D01*
X117528000Y-62073060D01*
X116528000Y-62073060D01*
X116528000Y-60584000D01*
X116547685Y-60516961D01*
X116600489Y-60471206D01*
X116652000Y-60460000D01*
X118027999Y-60460000D01*
X118027999Y-60435028D01*
X118027998Y-60435013D01*
X118017505Y-60332302D01*
X117962358Y-60165880D01*
X117962356Y-60165875D01*
X117870315Y-60016654D01*
X117755342Y-59901681D01*
X117721857Y-59840358D01*
X117726841Y-59770666D01*
X117768713Y-59714733D01*
X117834177Y-59690316D01*
X117843023Y-59690000D01*
X123317000Y-59690000D01*
X123317000Y-55245000D01*
X123314000Y-55245000D01*
X123246961Y-55225315D01*
X123201206Y-55172511D01*
X123190000Y-55121000D01*
X123190000Y-54864000D01*
X123120255Y-54864000D01*
X123053216Y-54844315D01*
X123032574Y-54827681D01*
X120616574Y-52411681D01*
X120583089Y-52350358D01*
X120584974Y-52323999D01*
X121943107Y-52323999D01*
X121943107Y-52324000D01*
X123285999Y-53666893D01*
X123286000Y-53666892D01*
X123286000Y-50981107D01*
X123285999Y-50981106D01*
X121943107Y-52323999D01*
X120584974Y-52323999D01*
X120588073Y-52280666D01*
X120616574Y-52236319D01*
X123103543Y-49749349D01*
X123103544Y-49749347D01*
X123089853Y-49732665D01*
X123062540Y-49668355D01*
X123074331Y-49599487D01*
X123121483Y-49547927D01*
X123185706Y-49530000D01*
X128781000Y-49530000D01*
X128848039Y-49549685D01*
G37*
%TD.AperFunction*%
%TD*%
%TA.AperFunction,Conductor*%
%TO.N,+BATT*%
G36*
X92018039Y-39763185D02*
G01*
X92063794Y-39815989D01*
X92075000Y-39867500D01*
X92075000Y-49784000D01*
X83058000Y-49784000D01*
X83058000Y-44654995D01*
X87965233Y-44654995D01*
X87965233Y-44655004D01*
X87984273Y-44909079D01*
X88040968Y-45157477D01*
X88040973Y-45157494D01*
X88134058Y-45394671D01*
X88166694Y-45451198D01*
X88872339Y-44745553D01*
X88900743Y-44888351D01*
X88961049Y-45033942D01*
X89048599Y-45164970D01*
X89160030Y-45276401D01*
X89291058Y-45363951D01*
X89436649Y-45424257D01*
X89579446Y-45452660D01*
X88873718Y-46158387D01*
X89049997Y-46243280D01*
X89101856Y-46290103D01*
X89120169Y-46357530D01*
X89099121Y-46424154D01*
X89049996Y-46466720D01*
X88873718Y-46551610D01*
X88873718Y-46551611D01*
X89579446Y-47257339D01*
X89436649Y-47285743D01*
X89291058Y-47346049D01*
X89160030Y-47433599D01*
X89048599Y-47545030D01*
X88961049Y-47676058D01*
X88900743Y-47821649D01*
X88872339Y-47964446D01*
X88166694Y-47258801D01*
X88134057Y-47315331D01*
X88134055Y-47315335D01*
X88040973Y-47552505D01*
X88040968Y-47552522D01*
X87984273Y-47800920D01*
X87965233Y-48054995D01*
X87965233Y-48055004D01*
X87984273Y-48309079D01*
X88040968Y-48557477D01*
X88040973Y-48557494D01*
X88134058Y-48794671D01*
X88166694Y-48851198D01*
X88872339Y-48145553D01*
X88900743Y-48288351D01*
X88961049Y-48433942D01*
X89048599Y-48564970D01*
X89160030Y-48676401D01*
X89291058Y-48763951D01*
X89436649Y-48824257D01*
X89579446Y-48852660D01*
X88873718Y-49558387D01*
X89047173Y-49641920D01*
X89047177Y-49641921D01*
X89290652Y-49717024D01*
X89290658Y-49717026D01*
X89542595Y-49754999D01*
X89542604Y-49755000D01*
X89797396Y-49755000D01*
X89797404Y-49754999D01*
X90049341Y-49717026D01*
X90049347Y-49717024D01*
X90292824Y-49641921D01*
X90466281Y-49558389D01*
X90466281Y-49558388D01*
X89760553Y-48852660D01*
X89903351Y-48824257D01*
X90048942Y-48763951D01*
X90179970Y-48676401D01*
X90291401Y-48564970D01*
X90378951Y-48433942D01*
X90439257Y-48288351D01*
X90467660Y-48145553D01*
X91173305Y-48851198D01*
X91205940Y-48794674D01*
X91205945Y-48794664D01*
X91299026Y-48557494D01*
X91299031Y-48557477D01*
X91355726Y-48309079D01*
X91374767Y-48055004D01*
X91374767Y-48054995D01*
X91355726Y-47800920D01*
X91299031Y-47552522D01*
X91299026Y-47552505D01*
X91205943Y-47315331D01*
X91173304Y-47258800D01*
X90467660Y-47964445D01*
X90439257Y-47821649D01*
X90378951Y-47676058D01*
X90291401Y-47545030D01*
X90179970Y-47433599D01*
X90048942Y-47346049D01*
X89903351Y-47285743D01*
X89760554Y-47257339D01*
X90466282Y-46551611D01*
X90466281Y-46551609D01*
X90290003Y-46466719D01*
X90238143Y-46419897D01*
X90219830Y-46352470D01*
X90240878Y-46285846D01*
X90290003Y-46243278D01*
X90466281Y-46158388D01*
X89760553Y-45452660D01*
X89903351Y-45424257D01*
X90048942Y-45363951D01*
X90179970Y-45276401D01*
X90291401Y-45164970D01*
X90378951Y-45033942D01*
X90439257Y-44888351D01*
X90467660Y-44745553D01*
X91173305Y-45451198D01*
X91205940Y-45394674D01*
X91205945Y-45394664D01*
X91299026Y-45157494D01*
X91299031Y-45157477D01*
X91355726Y-44909079D01*
X91374767Y-44655004D01*
X91374767Y-44654995D01*
X91355726Y-44400920D01*
X91299031Y-44152522D01*
X91299026Y-44152505D01*
X91205943Y-43915331D01*
X91173304Y-43858800D01*
X90467660Y-44564445D01*
X90439257Y-44421649D01*
X90378951Y-44276058D01*
X90291401Y-44145030D01*
X90179970Y-44033599D01*
X90048942Y-43946049D01*
X89903351Y-43885743D01*
X89760554Y-43857339D01*
X90466282Y-43151611D01*
X90466281Y-43151610D01*
X90292815Y-43068075D01*
X90292811Y-43068073D01*
X90049347Y-42992975D01*
X90049341Y-42992973D01*
X89797404Y-42955000D01*
X89542595Y-42955000D01*
X89290658Y-42992973D01*
X89290652Y-42992975D01*
X89047175Y-43068078D01*
X88873718Y-43151610D01*
X88873718Y-43151611D01*
X89579446Y-43857339D01*
X89436649Y-43885743D01*
X89291058Y-43946049D01*
X89160030Y-44033599D01*
X89048599Y-44145030D01*
X88961049Y-44276058D01*
X88900743Y-44421649D01*
X88872339Y-44564446D01*
X88166694Y-43858801D01*
X88134057Y-43915331D01*
X88134055Y-43915335D01*
X88040973Y-44152505D01*
X88040968Y-44152522D01*
X87984273Y-44400920D01*
X87965233Y-44654995D01*
X83058000Y-44654995D01*
X83058000Y-39867500D01*
X83077685Y-39800461D01*
X83130489Y-39754706D01*
X83182000Y-39743500D01*
X91951000Y-39743500D01*
X92018039Y-39763185D01*
G37*
%TD.AperFunction*%
%TD*%
%TA.AperFunction,Conductor*%
%TO.N,Net-(J1-Pin_2)*%
G36*
X82595539Y-39763185D02*
G01*
X82641294Y-39815989D01*
X82652500Y-39867500D01*
X82652500Y-49783999D01*
X82673873Y-49918945D01*
X82673164Y-49919057D01*
X82677000Y-49943266D01*
X82677000Y-53485258D01*
X82657315Y-53552297D01*
X82604511Y-53598052D01*
X82535353Y-53607996D01*
X82471797Y-53578971D01*
X82440802Y-53538055D01*
X82414001Y-53481101D01*
X82413993Y-53481086D01*
X82297143Y-53296963D01*
X81417396Y-54176709D01*
X81329623Y-54004446D01*
X81204722Y-53832534D01*
X81054466Y-53682278D01*
X80882554Y-53557377D01*
X80710289Y-53469603D01*
X81591047Y-52588845D01*
X81591046Y-52588843D01*
X81544071Y-52554714D01*
X81544053Y-52554702D01*
X81262883Y-52400128D01*
X81262875Y-52400124D01*
X80964555Y-52282012D01*
X80653766Y-52202215D01*
X80653757Y-52202213D01*
X80335443Y-52162000D01*
X80014556Y-52162000D01*
X79696242Y-52202213D01*
X79696233Y-52202215D01*
X79385444Y-52282012D01*
X79087124Y-52400124D01*
X79087116Y-52400128D01*
X78805943Y-52554704D01*
X78805941Y-52554706D01*
X78758952Y-52588844D01*
X78758952Y-52588845D01*
X79639710Y-53469603D01*
X79467446Y-53557377D01*
X79295534Y-53682278D01*
X79145278Y-53832534D01*
X79020377Y-54004446D01*
X78932603Y-54176710D01*
X78052855Y-53296962D01*
X77936001Y-53481096D01*
X77935998Y-53481102D01*
X77799384Y-53771419D01*
X77799382Y-53771424D01*
X77700230Y-54076582D01*
X77640104Y-54391771D01*
X77640103Y-54391778D01*
X77619958Y-54711994D01*
X77619958Y-54712005D01*
X77640103Y-55032221D01*
X77640104Y-55032228D01*
X77700230Y-55347417D01*
X77799382Y-55652575D01*
X77799384Y-55652580D01*
X77935998Y-55942897D01*
X77936003Y-55942907D01*
X78052855Y-56127035D01*
X78052856Y-56127036D01*
X78932603Y-55247289D01*
X79020377Y-55419554D01*
X79145278Y-55591466D01*
X79295534Y-55741722D01*
X79467446Y-55866623D01*
X79639709Y-55954396D01*
X78758951Y-56835153D01*
X78758952Y-56835154D01*
X78805933Y-56869288D01*
X78805952Y-56869300D01*
X79087116Y-57023871D01*
X79087124Y-57023875D01*
X79385444Y-57141987D01*
X79696233Y-57221784D01*
X79696242Y-57221786D01*
X80014556Y-57261999D01*
X80014570Y-57262000D01*
X80335430Y-57262000D01*
X80335443Y-57261999D01*
X80653757Y-57221786D01*
X80653766Y-57221784D01*
X80964555Y-57141987D01*
X81262875Y-57023875D01*
X81262876Y-57023874D01*
X81544060Y-56869291D01*
X81544066Y-56869288D01*
X81591046Y-56835154D01*
X81591046Y-56835153D01*
X80710289Y-55954396D01*
X80882554Y-55866623D01*
X81054466Y-55741722D01*
X81204722Y-55591466D01*
X81329623Y-55419554D01*
X81417396Y-55247289D01*
X82297143Y-56127036D01*
X82297143Y-56127035D01*
X82413994Y-55942909D01*
X82414001Y-55942897D01*
X82440801Y-55885945D01*
X82487156Y-55833667D01*
X82554416Y-55814749D01*
X82621227Y-55835198D01*
X82666375Y-55888521D01*
X82677000Y-55938741D01*
X82677000Y-57661000D01*
X82657315Y-57728039D01*
X82604511Y-57773794D01*
X82553000Y-57785000D01*
X71998500Y-57785000D01*
X71931461Y-57765315D01*
X71885706Y-57712511D01*
X71874500Y-57661000D01*
X71874500Y-51080475D01*
X72774500Y-51080475D01*
X72774500Y-52043517D01*
X72785292Y-52111657D01*
X72789354Y-52137304D01*
X72846950Y-52250342D01*
X72846952Y-52250344D01*
X72846954Y-52250347D01*
X72936652Y-52340045D01*
X72936654Y-52340046D01*
X72936658Y-52340050D01*
X73049694Y-52397645D01*
X73049698Y-52397647D01*
X73143475Y-52412499D01*
X73143481Y-52412500D01*
X75206518Y-52412499D01*
X75300304Y-52397646D01*
X75413342Y-52340050D01*
X75503050Y-52250342D01*
X75560646Y-52137304D01*
X75560646Y-52137302D01*
X75560647Y-52137301D01*
X75575499Y-52043524D01*
X75575500Y-52043519D01*
X75575499Y-51080482D01*
X75560646Y-50986696D01*
X75503050Y-50873658D01*
X75503046Y-50873654D01*
X75503045Y-50873652D01*
X75413347Y-50783954D01*
X75413344Y-50783952D01*
X75413342Y-50783950D01*
X75336517Y-50744805D01*
X75300301Y-50726352D01*
X75206524Y-50711500D01*
X73143482Y-50711500D01*
X73062519Y-50724323D01*
X73049696Y-50726354D01*
X72936658Y-50783950D01*
X72936657Y-50783951D01*
X72936652Y-50783954D01*
X72846954Y-50873652D01*
X72846951Y-50873657D01*
X72789352Y-50986698D01*
X72774500Y-51080475D01*
X71874500Y-51080475D01*
X71874500Y-44654995D01*
X74495233Y-44654995D01*
X74495233Y-44655004D01*
X74514273Y-44909079D01*
X74570968Y-45157477D01*
X74570973Y-45157494D01*
X74664058Y-45394671D01*
X74696694Y-45451198D01*
X75402339Y-44745553D01*
X75430743Y-44888351D01*
X75491049Y-45033942D01*
X75578599Y-45164970D01*
X75690030Y-45276401D01*
X75821058Y-45363951D01*
X75966649Y-45424257D01*
X76109446Y-45452660D01*
X75403718Y-46158387D01*
X75579997Y-46243280D01*
X75631856Y-46290103D01*
X75650169Y-46357530D01*
X75629121Y-46424154D01*
X75579996Y-46466720D01*
X75403718Y-46551610D01*
X75403718Y-46551611D01*
X76109446Y-47257339D01*
X75966649Y-47285743D01*
X75821058Y-47346049D01*
X75690030Y-47433599D01*
X75578599Y-47545030D01*
X75491049Y-47676058D01*
X75430743Y-47821649D01*
X75402339Y-47964446D01*
X74696694Y-47258801D01*
X74664057Y-47315331D01*
X74664055Y-47315335D01*
X74570973Y-47552505D01*
X74570968Y-47552522D01*
X74514273Y-47800920D01*
X74495233Y-48054995D01*
X74495233Y-48055004D01*
X74514273Y-48309079D01*
X74570968Y-48557477D01*
X74570973Y-48557494D01*
X74664058Y-48794671D01*
X74696694Y-48851198D01*
X75402339Y-48145553D01*
X75430743Y-48288351D01*
X75491049Y-48433942D01*
X75578599Y-48564970D01*
X75690030Y-48676401D01*
X75821058Y-48763951D01*
X75966649Y-48824257D01*
X76109446Y-48852660D01*
X75403718Y-49558387D01*
X75577173Y-49641920D01*
X75577177Y-49641921D01*
X75820652Y-49717024D01*
X75820658Y-49717026D01*
X76072595Y-49754999D01*
X76072604Y-49755000D01*
X76327396Y-49755000D01*
X76327404Y-49754999D01*
X76579341Y-49717026D01*
X76579347Y-49717024D01*
X76822824Y-49641921D01*
X76996281Y-49558389D01*
X76996281Y-49558388D01*
X76290553Y-48852660D01*
X76433351Y-48824257D01*
X76578942Y-48763951D01*
X76709970Y-48676401D01*
X76821401Y-48564970D01*
X76908951Y-48433942D01*
X76969257Y-48288351D01*
X76997660Y-48145553D01*
X77703305Y-48851198D01*
X77735940Y-48794674D01*
X77735945Y-48794664D01*
X77829026Y-48557494D01*
X77829031Y-48557477D01*
X77885726Y-48309079D01*
X77904767Y-48055004D01*
X77904767Y-48054995D01*
X77885726Y-47800920D01*
X77829031Y-47552522D01*
X77829026Y-47552505D01*
X77735943Y-47315331D01*
X77703304Y-47258800D01*
X76997660Y-47964445D01*
X76969257Y-47821649D01*
X76908951Y-47676058D01*
X76821401Y-47545030D01*
X76709970Y-47433599D01*
X76578942Y-47346049D01*
X76433351Y-47285743D01*
X76290554Y-47257339D01*
X76996282Y-46551611D01*
X76996281Y-46551609D01*
X76820003Y-46466719D01*
X76768143Y-46419897D01*
X76749830Y-46352470D01*
X76770878Y-46285846D01*
X76820003Y-46243278D01*
X76996281Y-46158388D01*
X76290553Y-45452660D01*
X76433351Y-45424257D01*
X76578942Y-45363951D01*
X76709970Y-45276401D01*
X76821401Y-45164970D01*
X76908951Y-45033942D01*
X76969257Y-44888351D01*
X76997660Y-44745553D01*
X77703305Y-45451198D01*
X77735940Y-45394674D01*
X77735945Y-45394664D01*
X77829026Y-45157494D01*
X77829031Y-45157477D01*
X77885726Y-44909079D01*
X77904767Y-44655004D01*
X77904767Y-44654995D01*
X77885726Y-44400920D01*
X77829031Y-44152522D01*
X77829026Y-44152505D01*
X77735943Y-43915331D01*
X77703304Y-43858800D01*
X76997660Y-44564445D01*
X76969257Y-44421649D01*
X76908951Y-44276058D01*
X76821401Y-44145030D01*
X76709970Y-44033599D01*
X76578942Y-43946049D01*
X76433351Y-43885743D01*
X76290554Y-43857339D01*
X76996282Y-43151611D01*
X76996281Y-43151610D01*
X76822815Y-43068075D01*
X76822811Y-43068073D01*
X76579347Y-42992975D01*
X76579341Y-42992973D01*
X76327404Y-42955000D01*
X76072595Y-42955000D01*
X75820658Y-42992973D01*
X75820652Y-42992975D01*
X75577175Y-43068078D01*
X75403718Y-43151610D01*
X75403718Y-43151611D01*
X76109446Y-43857339D01*
X75966649Y-43885743D01*
X75821058Y-43946049D01*
X75690030Y-44033599D01*
X75578599Y-44145030D01*
X75491049Y-44276058D01*
X75430743Y-44421649D01*
X75402339Y-44564446D01*
X74696694Y-43858801D01*
X74664057Y-43915331D01*
X74664055Y-43915335D01*
X74570973Y-44152505D01*
X74570968Y-44152522D01*
X74514273Y-44400920D01*
X74495233Y-44654995D01*
X71874500Y-44654995D01*
X71874500Y-42246750D01*
X71874726Y-42239263D01*
X71892271Y-41949205D01*
X71894076Y-41934340D01*
X71945780Y-41652201D01*
X71949364Y-41637663D01*
X72026096Y-41391422D01*
X72034696Y-41363822D01*
X72039998Y-41349841D01*
X72157731Y-41088249D01*
X72164676Y-41075016D01*
X72313080Y-40829526D01*
X72321567Y-40817230D01*
X72498480Y-40591417D01*
X72508395Y-40580226D01*
X72711226Y-40377395D01*
X72722417Y-40367480D01*
X72948230Y-40190567D01*
X72960526Y-40182080D01*
X73206016Y-40033676D01*
X73219249Y-40026731D01*
X73480841Y-39908998D01*
X73494822Y-39903696D01*
X73768668Y-39818362D01*
X73783197Y-39814780D01*
X74065344Y-39763075D01*
X74080201Y-39761271D01*
X74370264Y-39743726D01*
X74377751Y-39743500D01*
X74439892Y-39743500D01*
X82528500Y-39743500D01*
X82595539Y-39763185D01*
G37*
%TD.AperFunction*%
%TD*%
%TA.AperFunction,Conductor*%
%TO.N,SW*%
G36*
X111703039Y-49803685D02*
G01*
X111748794Y-49856489D01*
X111760000Y-49908000D01*
X111760000Y-54740000D01*
X111740315Y-54807039D01*
X111687511Y-54852794D01*
X111636000Y-54864000D01*
X108204000Y-54864000D01*
X108204000Y-54994000D01*
X108184315Y-55061039D01*
X108131511Y-55106794D01*
X108080000Y-55118000D01*
X104694284Y-55118000D01*
X104627245Y-55098315D01*
X104582564Y-55047803D01*
X104556653Y-54994000D01*
X104554666Y-54989873D01*
X104483163Y-54932851D01*
X104394004Y-54912500D01*
X104394000Y-54912500D01*
X103969709Y-54912500D01*
X103945517Y-54910117D01*
X103934306Y-54907887D01*
X103921799Y-54905399D01*
X103921798Y-54905399D01*
X103502000Y-54905399D01*
X103434961Y-54885714D01*
X103389206Y-54832910D01*
X103378000Y-54781399D01*
X103378000Y-54508506D01*
X103397685Y-54441467D01*
X103450489Y-54395712D01*
X103502000Y-54384506D01*
X103768750Y-54384506D01*
X103768751Y-54384505D01*
X103783568Y-54381558D01*
X103827229Y-54372874D01*
X103827229Y-54372873D01*
X103827231Y-54372873D01*
X103893552Y-54328558D01*
X103893553Y-54328557D01*
X103909666Y-54304443D01*
X103963278Y-54259637D01*
X103970907Y-54257248D01*
X103980276Y-54253366D01*
X103980281Y-54253366D01*
X104046602Y-54209051D01*
X104090917Y-54142730D01*
X104090917Y-54142728D01*
X104090918Y-54142728D01*
X104102549Y-54084251D01*
X104102550Y-54084249D01*
X104102550Y-53765348D01*
X104102549Y-53765346D01*
X104090918Y-53706869D01*
X104087269Y-53698060D01*
X104079800Y-53628591D01*
X104111075Y-53566111D01*
X104114121Y-53562954D01*
X104735257Y-52941819D01*
X104796580Y-52908334D01*
X104822938Y-52905500D01*
X105707114Y-52905500D01*
X105707116Y-52905500D01*
X105790410Y-52883181D01*
X105865090Y-52840065D01*
X106942065Y-51763090D01*
X106985181Y-51688410D01*
X107007500Y-51605116D01*
X107007500Y-51518884D01*
X107007500Y-51261874D01*
X107027185Y-51194835D01*
X107058896Y-51161352D01*
X108933495Y-49807476D01*
X108999368Y-49784183D01*
X109006096Y-49784000D01*
X111636000Y-49784000D01*
X111703039Y-49803685D01*
G37*
%TD.AperFunction*%
%TD*%
M02*
