%TF.GenerationSoftware,KiCad,Pcbnew,8.0.3*%
%TF.CreationDate,2024-07-17T12:48:18+09:00*%
%TF.ProjectId,DCDC_24to12,44434443-5f32-4347-946f-31322e6b6963,rev?*%
%TF.SameCoordinates,Original*%
%TF.FileFunction,Legend,Top*%
%TF.FilePolarity,Positive*%
%FSLAX46Y46*%
G04 Gerber Fmt 4.6, Leading zero omitted, Abs format (unit mm)*
G04 Created by KiCad (PCBNEW 8.0.3) date 2024-07-17 12:48:18*
%MOMM*%
%LPD*%
G01*
G04 APERTURE LIST*
%ADD10C,0.100000*%
%ADD11C,0.150000*%
%ADD12C,0.120000*%
%ADD13C,0.127000*%
%ADD14C,0.152400*%
G04 APERTURE END LIST*
D10*
X83060265Y-70550769D02*
X83107884Y-70503150D01*
X83107884Y-70503150D02*
X83203122Y-70455531D01*
X83203122Y-70455531D02*
X83441217Y-70455531D01*
X83441217Y-70455531D02*
X83536455Y-70503150D01*
X83536455Y-70503150D02*
X83584074Y-70550769D01*
X83584074Y-70550769D02*
X83631693Y-70646007D01*
X83631693Y-70646007D02*
X83631693Y-70741245D01*
X83631693Y-70741245D02*
X83584074Y-70884102D01*
X83584074Y-70884102D02*
X83012646Y-71455531D01*
X83012646Y-71455531D02*
X83631693Y-71455531D01*
X84250741Y-70455531D02*
X84345979Y-70455531D01*
X84345979Y-70455531D02*
X84441217Y-70503150D01*
X84441217Y-70503150D02*
X84488836Y-70550769D01*
X84488836Y-70550769D02*
X84536455Y-70646007D01*
X84536455Y-70646007D02*
X84584074Y-70836483D01*
X84584074Y-70836483D02*
X84584074Y-71074578D01*
X84584074Y-71074578D02*
X84536455Y-71265054D01*
X84536455Y-71265054D02*
X84488836Y-71360292D01*
X84488836Y-71360292D02*
X84441217Y-71407912D01*
X84441217Y-71407912D02*
X84345979Y-71455531D01*
X84345979Y-71455531D02*
X84250741Y-71455531D01*
X84250741Y-71455531D02*
X84155503Y-71407912D01*
X84155503Y-71407912D02*
X84107884Y-71360292D01*
X84107884Y-71360292D02*
X84060265Y-71265054D01*
X84060265Y-71265054D02*
X84012646Y-71074578D01*
X84012646Y-71074578D02*
X84012646Y-70836483D01*
X84012646Y-70836483D02*
X84060265Y-70646007D01*
X84060265Y-70646007D02*
X84107884Y-70550769D01*
X84107884Y-70550769D02*
X84155503Y-70503150D01*
X84155503Y-70503150D02*
X84250741Y-70455531D01*
X84965027Y-70550769D02*
X85012646Y-70503150D01*
X85012646Y-70503150D02*
X85107884Y-70455531D01*
X85107884Y-70455531D02*
X85345979Y-70455531D01*
X85345979Y-70455531D02*
X85441217Y-70503150D01*
X85441217Y-70503150D02*
X85488836Y-70550769D01*
X85488836Y-70550769D02*
X85536455Y-70646007D01*
X85536455Y-70646007D02*
X85536455Y-70741245D01*
X85536455Y-70741245D02*
X85488836Y-70884102D01*
X85488836Y-70884102D02*
X84917408Y-71455531D01*
X84917408Y-71455531D02*
X85536455Y-71455531D01*
X86393598Y-70788864D02*
X86393598Y-71455531D01*
X86155503Y-70407912D02*
X85917408Y-71122197D01*
X85917408Y-71122197D02*
X86536455Y-71122197D01*
X87679313Y-71455531D02*
X87679313Y-70455531D01*
X88155503Y-71455531D02*
X88155503Y-70455531D01*
X88155503Y-70836483D02*
X88250741Y-70788864D01*
X88250741Y-70788864D02*
X88441217Y-70788864D01*
X88441217Y-70788864D02*
X88536455Y-70836483D01*
X88536455Y-70836483D02*
X88584074Y-70884102D01*
X88584074Y-70884102D02*
X88631693Y-70979340D01*
X88631693Y-70979340D02*
X88631693Y-71265054D01*
X88631693Y-71265054D02*
X88584074Y-71360292D01*
X88584074Y-71360292D02*
X88536455Y-71407912D01*
X88536455Y-71407912D02*
X88441217Y-71455531D01*
X88441217Y-71455531D02*
X88250741Y-71455531D01*
X88250741Y-71455531D02*
X88155503Y-71407912D01*
X89488836Y-71455531D02*
X89488836Y-70931721D01*
X89488836Y-70931721D02*
X89441217Y-70836483D01*
X89441217Y-70836483D02*
X89345979Y-70788864D01*
X89345979Y-70788864D02*
X89155503Y-70788864D01*
X89155503Y-70788864D02*
X89060265Y-70836483D01*
X89488836Y-71407912D02*
X89393598Y-71455531D01*
X89393598Y-71455531D02*
X89155503Y-71455531D01*
X89155503Y-71455531D02*
X89060265Y-71407912D01*
X89060265Y-71407912D02*
X89012646Y-71312673D01*
X89012646Y-71312673D02*
X89012646Y-71217435D01*
X89012646Y-71217435D02*
X89060265Y-71122197D01*
X89060265Y-71122197D02*
X89155503Y-71074578D01*
X89155503Y-71074578D02*
X89393598Y-71074578D01*
X89393598Y-71074578D02*
X89488836Y-71026959D01*
X89965027Y-71455531D02*
X89965027Y-70788864D01*
X89965027Y-70979340D02*
X90012646Y-70884102D01*
X90012646Y-70884102D02*
X90060265Y-70836483D01*
X90060265Y-70836483D02*
X90155503Y-70788864D01*
X90155503Y-70788864D02*
X90250741Y-70788864D01*
X91012646Y-71455531D02*
X91012646Y-70931721D01*
X91012646Y-70931721D02*
X90965027Y-70836483D01*
X90965027Y-70836483D02*
X90869789Y-70788864D01*
X90869789Y-70788864D02*
X90679313Y-70788864D01*
X90679313Y-70788864D02*
X90584075Y-70836483D01*
X91012646Y-71407912D02*
X90917408Y-71455531D01*
X90917408Y-71455531D02*
X90679313Y-71455531D01*
X90679313Y-71455531D02*
X90584075Y-71407912D01*
X90584075Y-71407912D02*
X90536456Y-71312673D01*
X90536456Y-71312673D02*
X90536456Y-71217435D01*
X90536456Y-71217435D02*
X90584075Y-71122197D01*
X90584075Y-71122197D02*
X90679313Y-71074578D01*
X90679313Y-71074578D02*
X90917408Y-71074578D01*
X90917408Y-71074578D02*
X91012646Y-71026959D01*
X91488837Y-71455531D02*
X91488837Y-70455531D01*
X91584075Y-71074578D02*
X91869789Y-71455531D01*
X91869789Y-70788864D02*
X91488837Y-71169816D01*
X92298361Y-71455531D02*
X92298361Y-70788864D01*
X92298361Y-70455531D02*
X92250742Y-70503150D01*
X92250742Y-70503150D02*
X92298361Y-70550769D01*
X92298361Y-70550769D02*
X92345980Y-70503150D01*
X92345980Y-70503150D02*
X92298361Y-70455531D01*
X92298361Y-70455531D02*
X92298361Y-70550769D01*
X92536456Y-71550769D02*
X93298360Y-71550769D01*
X93869789Y-70931721D02*
X94012646Y-70979340D01*
X94012646Y-70979340D02*
X94060265Y-71026959D01*
X94060265Y-71026959D02*
X94107884Y-71122197D01*
X94107884Y-71122197D02*
X94107884Y-71265054D01*
X94107884Y-71265054D02*
X94060265Y-71360292D01*
X94060265Y-71360292D02*
X94012646Y-71407912D01*
X94012646Y-71407912D02*
X93917408Y-71455531D01*
X93917408Y-71455531D02*
X93536456Y-71455531D01*
X93536456Y-71455531D02*
X93536456Y-70455531D01*
X93536456Y-70455531D02*
X93869789Y-70455531D01*
X93869789Y-70455531D02*
X93965027Y-70503150D01*
X93965027Y-70503150D02*
X94012646Y-70550769D01*
X94012646Y-70550769D02*
X94060265Y-70646007D01*
X94060265Y-70646007D02*
X94060265Y-70741245D01*
X94060265Y-70741245D02*
X94012646Y-70836483D01*
X94012646Y-70836483D02*
X93965027Y-70884102D01*
X93965027Y-70884102D02*
X93869789Y-70931721D01*
X93869789Y-70931721D02*
X93536456Y-70931721D01*
X83107884Y-73065475D02*
X83107884Y-72065475D01*
X83107884Y-72065475D02*
X83345979Y-72065475D01*
X83345979Y-72065475D02*
X83488836Y-72113094D01*
X83488836Y-72113094D02*
X83584074Y-72208332D01*
X83584074Y-72208332D02*
X83631693Y-72303570D01*
X83631693Y-72303570D02*
X83679312Y-72494046D01*
X83679312Y-72494046D02*
X83679312Y-72636903D01*
X83679312Y-72636903D02*
X83631693Y-72827379D01*
X83631693Y-72827379D02*
X83584074Y-72922617D01*
X83584074Y-72922617D02*
X83488836Y-73017856D01*
X83488836Y-73017856D02*
X83345979Y-73065475D01*
X83345979Y-73065475D02*
X83107884Y-73065475D01*
X84679312Y-72970236D02*
X84631693Y-73017856D01*
X84631693Y-73017856D02*
X84488836Y-73065475D01*
X84488836Y-73065475D02*
X84393598Y-73065475D01*
X84393598Y-73065475D02*
X84250741Y-73017856D01*
X84250741Y-73017856D02*
X84155503Y-72922617D01*
X84155503Y-72922617D02*
X84107884Y-72827379D01*
X84107884Y-72827379D02*
X84060265Y-72636903D01*
X84060265Y-72636903D02*
X84060265Y-72494046D01*
X84060265Y-72494046D02*
X84107884Y-72303570D01*
X84107884Y-72303570D02*
X84155503Y-72208332D01*
X84155503Y-72208332D02*
X84250741Y-72113094D01*
X84250741Y-72113094D02*
X84393598Y-72065475D01*
X84393598Y-72065475D02*
X84488836Y-72065475D01*
X84488836Y-72065475D02*
X84631693Y-72113094D01*
X84631693Y-72113094D02*
X84679312Y-72160713D01*
X85107884Y-73065475D02*
X85107884Y-72065475D01*
X85107884Y-72065475D02*
X85345979Y-72065475D01*
X85345979Y-72065475D02*
X85488836Y-72113094D01*
X85488836Y-72113094D02*
X85584074Y-72208332D01*
X85584074Y-72208332D02*
X85631693Y-72303570D01*
X85631693Y-72303570D02*
X85679312Y-72494046D01*
X85679312Y-72494046D02*
X85679312Y-72636903D01*
X85679312Y-72636903D02*
X85631693Y-72827379D01*
X85631693Y-72827379D02*
X85584074Y-72922617D01*
X85584074Y-72922617D02*
X85488836Y-73017856D01*
X85488836Y-73017856D02*
X85345979Y-73065475D01*
X85345979Y-73065475D02*
X85107884Y-73065475D01*
X86679312Y-72970236D02*
X86631693Y-73017856D01*
X86631693Y-73017856D02*
X86488836Y-73065475D01*
X86488836Y-73065475D02*
X86393598Y-73065475D01*
X86393598Y-73065475D02*
X86250741Y-73017856D01*
X86250741Y-73017856D02*
X86155503Y-72922617D01*
X86155503Y-72922617D02*
X86107884Y-72827379D01*
X86107884Y-72827379D02*
X86060265Y-72636903D01*
X86060265Y-72636903D02*
X86060265Y-72494046D01*
X86060265Y-72494046D02*
X86107884Y-72303570D01*
X86107884Y-72303570D02*
X86155503Y-72208332D01*
X86155503Y-72208332D02*
X86250741Y-72113094D01*
X86250741Y-72113094D02*
X86393598Y-72065475D01*
X86393598Y-72065475D02*
X86488836Y-72065475D01*
X86488836Y-72065475D02*
X86631693Y-72113094D01*
X86631693Y-72113094D02*
X86679312Y-72160713D01*
X86869789Y-73160713D02*
X87631693Y-73160713D01*
X87822170Y-72160713D02*
X87869789Y-72113094D01*
X87869789Y-72113094D02*
X87965027Y-72065475D01*
X87965027Y-72065475D02*
X88203122Y-72065475D01*
X88203122Y-72065475D02*
X88298360Y-72113094D01*
X88298360Y-72113094D02*
X88345979Y-72160713D01*
X88345979Y-72160713D02*
X88393598Y-72255951D01*
X88393598Y-72255951D02*
X88393598Y-72351189D01*
X88393598Y-72351189D02*
X88345979Y-72494046D01*
X88345979Y-72494046D02*
X87774551Y-73065475D01*
X87774551Y-73065475D02*
X88393598Y-73065475D01*
X89250741Y-72398808D02*
X89250741Y-73065475D01*
X89012646Y-72017856D02*
X88774551Y-72732141D01*
X88774551Y-72732141D02*
X89393598Y-72732141D01*
X89631694Y-72398808D02*
X90012646Y-72398808D01*
X89774551Y-72065475D02*
X89774551Y-72922617D01*
X89774551Y-72922617D02*
X89822170Y-73017856D01*
X89822170Y-73017856D02*
X89917408Y-73065475D01*
X89917408Y-73065475D02*
X90012646Y-73065475D01*
X90488837Y-73065475D02*
X90393599Y-73017856D01*
X90393599Y-73017856D02*
X90345980Y-72970236D01*
X90345980Y-72970236D02*
X90298361Y-72874998D01*
X90298361Y-72874998D02*
X90298361Y-72589284D01*
X90298361Y-72589284D02*
X90345980Y-72494046D01*
X90345980Y-72494046D02*
X90393599Y-72446427D01*
X90393599Y-72446427D02*
X90488837Y-72398808D01*
X90488837Y-72398808D02*
X90631694Y-72398808D01*
X90631694Y-72398808D02*
X90726932Y-72446427D01*
X90726932Y-72446427D02*
X90774551Y-72494046D01*
X90774551Y-72494046D02*
X90822170Y-72589284D01*
X90822170Y-72589284D02*
X90822170Y-72874998D01*
X90822170Y-72874998D02*
X90774551Y-72970236D01*
X90774551Y-72970236D02*
X90726932Y-73017856D01*
X90726932Y-73017856D02*
X90631694Y-73065475D01*
X90631694Y-73065475D02*
X90488837Y-73065475D01*
X91774551Y-73065475D02*
X91203123Y-73065475D01*
X91488837Y-73065475D02*
X91488837Y-72065475D01*
X91488837Y-72065475D02*
X91393599Y-72208332D01*
X91393599Y-72208332D02*
X91298361Y-72303570D01*
X91298361Y-72303570D02*
X91203123Y-72351189D01*
X92155504Y-72160713D02*
X92203123Y-72113094D01*
X92203123Y-72113094D02*
X92298361Y-72065475D01*
X92298361Y-72065475D02*
X92536456Y-72065475D01*
X92536456Y-72065475D02*
X92631694Y-72113094D01*
X92631694Y-72113094D02*
X92679313Y-72160713D01*
X92679313Y-72160713D02*
X92726932Y-72255951D01*
X92726932Y-72255951D02*
X92726932Y-72351189D01*
X92726932Y-72351189D02*
X92679313Y-72494046D01*
X92679313Y-72494046D02*
X92107885Y-73065475D01*
X92107885Y-73065475D02*
X92726932Y-73065475D01*
X94250742Y-72541665D02*
X94393599Y-72589284D01*
X94393599Y-72589284D02*
X94441218Y-72636903D01*
X94441218Y-72636903D02*
X94488837Y-72732141D01*
X94488837Y-72732141D02*
X94488837Y-72874998D01*
X94488837Y-72874998D02*
X94441218Y-72970236D01*
X94441218Y-72970236D02*
X94393599Y-73017856D01*
X94393599Y-73017856D02*
X94298361Y-73065475D01*
X94298361Y-73065475D02*
X93917409Y-73065475D01*
X93917409Y-73065475D02*
X93917409Y-72065475D01*
X93917409Y-72065475D02*
X94250742Y-72065475D01*
X94250742Y-72065475D02*
X94345980Y-72113094D01*
X94345980Y-72113094D02*
X94393599Y-72160713D01*
X94393599Y-72160713D02*
X94441218Y-72255951D01*
X94441218Y-72255951D02*
X94441218Y-72351189D01*
X94441218Y-72351189D02*
X94393599Y-72446427D01*
X94393599Y-72446427D02*
X94345980Y-72494046D01*
X94345980Y-72494046D02*
X94250742Y-72541665D01*
X94250742Y-72541665D02*
X93917409Y-72541665D01*
X95060266Y-73065475D02*
X94965028Y-73017856D01*
X94965028Y-73017856D02*
X94917409Y-72970236D01*
X94917409Y-72970236D02*
X94869790Y-72874998D01*
X94869790Y-72874998D02*
X94869790Y-72589284D01*
X94869790Y-72589284D02*
X94917409Y-72494046D01*
X94917409Y-72494046D02*
X94965028Y-72446427D01*
X94965028Y-72446427D02*
X95060266Y-72398808D01*
X95060266Y-72398808D02*
X95203123Y-72398808D01*
X95203123Y-72398808D02*
X95298361Y-72446427D01*
X95298361Y-72446427D02*
X95345980Y-72494046D01*
X95345980Y-72494046D02*
X95393599Y-72589284D01*
X95393599Y-72589284D02*
X95393599Y-72874998D01*
X95393599Y-72874998D02*
X95345980Y-72970236D01*
X95345980Y-72970236D02*
X95298361Y-73017856D01*
X95298361Y-73017856D02*
X95203123Y-73065475D01*
X95203123Y-73065475D02*
X95060266Y-73065475D01*
X96250742Y-73065475D02*
X96250742Y-72541665D01*
X96250742Y-72541665D02*
X96203123Y-72446427D01*
X96203123Y-72446427D02*
X96107885Y-72398808D01*
X96107885Y-72398808D02*
X95917409Y-72398808D01*
X95917409Y-72398808D02*
X95822171Y-72446427D01*
X96250742Y-73017856D02*
X96155504Y-73065475D01*
X96155504Y-73065475D02*
X95917409Y-73065475D01*
X95917409Y-73065475D02*
X95822171Y-73017856D01*
X95822171Y-73017856D02*
X95774552Y-72922617D01*
X95774552Y-72922617D02*
X95774552Y-72827379D01*
X95774552Y-72827379D02*
X95822171Y-72732141D01*
X95822171Y-72732141D02*
X95917409Y-72684522D01*
X95917409Y-72684522D02*
X96155504Y-72684522D01*
X96155504Y-72684522D02*
X96250742Y-72636903D01*
X96726933Y-73065475D02*
X96726933Y-72398808D01*
X96726933Y-72589284D02*
X96774552Y-72494046D01*
X96774552Y-72494046D02*
X96822171Y-72446427D01*
X96822171Y-72446427D02*
X96917409Y-72398808D01*
X96917409Y-72398808D02*
X97012647Y-72398808D01*
X97774552Y-73065475D02*
X97774552Y-72065475D01*
X97774552Y-73017856D02*
X97679314Y-73065475D01*
X97679314Y-73065475D02*
X97488838Y-73065475D01*
X97488838Y-73065475D02*
X97393600Y-73017856D01*
X97393600Y-73017856D02*
X97345981Y-72970236D01*
X97345981Y-72970236D02*
X97298362Y-72874998D01*
X97298362Y-72874998D02*
X97298362Y-72589284D01*
X97298362Y-72589284D02*
X97345981Y-72494046D01*
X97345981Y-72494046D02*
X97393600Y-72446427D01*
X97393600Y-72446427D02*
X97488838Y-72398808D01*
X97488838Y-72398808D02*
X97679314Y-72398808D01*
X97679314Y-72398808D02*
X97774552Y-72446427D01*
X83107884Y-74675419D02*
X83107884Y-73675419D01*
X83107884Y-73675419D02*
X83345979Y-73675419D01*
X83345979Y-73675419D02*
X83488836Y-73723038D01*
X83488836Y-73723038D02*
X83584074Y-73818276D01*
X83584074Y-73818276D02*
X83631693Y-73913514D01*
X83631693Y-73913514D02*
X83679312Y-74103990D01*
X83679312Y-74103990D02*
X83679312Y-74246847D01*
X83679312Y-74246847D02*
X83631693Y-74437323D01*
X83631693Y-74437323D02*
X83584074Y-74532561D01*
X83584074Y-74532561D02*
X83488836Y-74627800D01*
X83488836Y-74627800D02*
X83345979Y-74675419D01*
X83345979Y-74675419D02*
X83107884Y-74675419D01*
X84488836Y-74627800D02*
X84393598Y-74675419D01*
X84393598Y-74675419D02*
X84203122Y-74675419D01*
X84203122Y-74675419D02*
X84107884Y-74627800D01*
X84107884Y-74627800D02*
X84060265Y-74532561D01*
X84060265Y-74532561D02*
X84060265Y-74151609D01*
X84060265Y-74151609D02*
X84107884Y-74056371D01*
X84107884Y-74056371D02*
X84203122Y-74008752D01*
X84203122Y-74008752D02*
X84393598Y-74008752D01*
X84393598Y-74008752D02*
X84488836Y-74056371D01*
X84488836Y-74056371D02*
X84536455Y-74151609D01*
X84536455Y-74151609D02*
X84536455Y-74246847D01*
X84536455Y-74246847D02*
X84060265Y-74342085D01*
X84917408Y-74627800D02*
X85012646Y-74675419D01*
X85012646Y-74675419D02*
X85203122Y-74675419D01*
X85203122Y-74675419D02*
X85298360Y-74627800D01*
X85298360Y-74627800D02*
X85345979Y-74532561D01*
X85345979Y-74532561D02*
X85345979Y-74484942D01*
X85345979Y-74484942D02*
X85298360Y-74389704D01*
X85298360Y-74389704D02*
X85203122Y-74342085D01*
X85203122Y-74342085D02*
X85060265Y-74342085D01*
X85060265Y-74342085D02*
X84965027Y-74294466D01*
X84965027Y-74294466D02*
X84917408Y-74199228D01*
X84917408Y-74199228D02*
X84917408Y-74151609D01*
X84917408Y-74151609D02*
X84965027Y-74056371D01*
X84965027Y-74056371D02*
X85060265Y-74008752D01*
X85060265Y-74008752D02*
X85203122Y-74008752D01*
X85203122Y-74008752D02*
X85298360Y-74056371D01*
X85774551Y-74675419D02*
X85774551Y-74008752D01*
X85774551Y-73675419D02*
X85726932Y-73723038D01*
X85726932Y-73723038D02*
X85774551Y-73770657D01*
X85774551Y-73770657D02*
X85822170Y-73723038D01*
X85822170Y-73723038D02*
X85774551Y-73675419D01*
X85774551Y-73675419D02*
X85774551Y-73770657D01*
X86679312Y-74008752D02*
X86679312Y-74818276D01*
X86679312Y-74818276D02*
X86631693Y-74913514D01*
X86631693Y-74913514D02*
X86584074Y-74961133D01*
X86584074Y-74961133D02*
X86488836Y-75008752D01*
X86488836Y-75008752D02*
X86345979Y-75008752D01*
X86345979Y-75008752D02*
X86250741Y-74961133D01*
X86679312Y-74627800D02*
X86584074Y-74675419D01*
X86584074Y-74675419D02*
X86393598Y-74675419D01*
X86393598Y-74675419D02*
X86298360Y-74627800D01*
X86298360Y-74627800D02*
X86250741Y-74580180D01*
X86250741Y-74580180D02*
X86203122Y-74484942D01*
X86203122Y-74484942D02*
X86203122Y-74199228D01*
X86203122Y-74199228D02*
X86250741Y-74103990D01*
X86250741Y-74103990D02*
X86298360Y-74056371D01*
X86298360Y-74056371D02*
X86393598Y-74008752D01*
X86393598Y-74008752D02*
X86584074Y-74008752D01*
X86584074Y-74008752D02*
X86679312Y-74056371D01*
X87155503Y-74008752D02*
X87155503Y-74675419D01*
X87155503Y-74103990D02*
X87203122Y-74056371D01*
X87203122Y-74056371D02*
X87298360Y-74008752D01*
X87298360Y-74008752D02*
X87441217Y-74008752D01*
X87441217Y-74008752D02*
X87536455Y-74056371D01*
X87536455Y-74056371D02*
X87584074Y-74151609D01*
X87584074Y-74151609D02*
X87584074Y-74675419D01*
X88441217Y-74627800D02*
X88345979Y-74675419D01*
X88345979Y-74675419D02*
X88155503Y-74675419D01*
X88155503Y-74675419D02*
X88060265Y-74627800D01*
X88060265Y-74627800D02*
X88012646Y-74532561D01*
X88012646Y-74532561D02*
X88012646Y-74151609D01*
X88012646Y-74151609D02*
X88060265Y-74056371D01*
X88060265Y-74056371D02*
X88155503Y-74008752D01*
X88155503Y-74008752D02*
X88345979Y-74008752D01*
X88345979Y-74008752D02*
X88441217Y-74056371D01*
X88441217Y-74056371D02*
X88488836Y-74151609D01*
X88488836Y-74151609D02*
X88488836Y-74246847D01*
X88488836Y-74246847D02*
X88012646Y-74342085D01*
X89345979Y-74675419D02*
X89345979Y-73675419D01*
X89345979Y-74627800D02*
X89250741Y-74675419D01*
X89250741Y-74675419D02*
X89060265Y-74675419D01*
X89060265Y-74675419D02*
X88965027Y-74627800D01*
X88965027Y-74627800D02*
X88917408Y-74580180D01*
X88917408Y-74580180D02*
X88869789Y-74484942D01*
X88869789Y-74484942D02*
X88869789Y-74199228D01*
X88869789Y-74199228D02*
X88917408Y-74103990D01*
X88917408Y-74103990D02*
X88965027Y-74056371D01*
X88965027Y-74056371D02*
X89060265Y-74008752D01*
X89060265Y-74008752D02*
X89250741Y-74008752D01*
X89250741Y-74008752D02*
X89345979Y-74056371D01*
X90584075Y-74675419D02*
X90584075Y-73675419D01*
X90584075Y-74056371D02*
X90679313Y-74008752D01*
X90679313Y-74008752D02*
X90869789Y-74008752D01*
X90869789Y-74008752D02*
X90965027Y-74056371D01*
X90965027Y-74056371D02*
X91012646Y-74103990D01*
X91012646Y-74103990D02*
X91060265Y-74199228D01*
X91060265Y-74199228D02*
X91060265Y-74484942D01*
X91060265Y-74484942D02*
X91012646Y-74580180D01*
X91012646Y-74580180D02*
X90965027Y-74627800D01*
X90965027Y-74627800D02*
X90869789Y-74675419D01*
X90869789Y-74675419D02*
X90679313Y-74675419D01*
X90679313Y-74675419D02*
X90584075Y-74627800D01*
X91393599Y-74008752D02*
X91631694Y-74675419D01*
X91869789Y-74008752D02*
X91631694Y-74675419D01*
X91631694Y-74675419D02*
X91536456Y-74913514D01*
X91536456Y-74913514D02*
X91488837Y-74961133D01*
X91488837Y-74961133D02*
X91393599Y-75008752D01*
X93631694Y-74199228D02*
X93584075Y-74151609D01*
X93584075Y-74151609D02*
X93488837Y-74103990D01*
X93488837Y-74103990D02*
X93393599Y-74103990D01*
X93393599Y-74103990D02*
X93298361Y-74151609D01*
X93298361Y-74151609D02*
X93250742Y-74199228D01*
X93250742Y-74199228D02*
X93203123Y-74294466D01*
X93203123Y-74294466D02*
X93203123Y-74389704D01*
X93203123Y-74389704D02*
X93250742Y-74484942D01*
X93250742Y-74484942D02*
X93298361Y-74532561D01*
X93298361Y-74532561D02*
X93393599Y-74580180D01*
X93393599Y-74580180D02*
X93488837Y-74580180D01*
X93488837Y-74580180D02*
X93584075Y-74532561D01*
X93584075Y-74532561D02*
X93631694Y-74484942D01*
X93631694Y-74103990D02*
X93631694Y-74484942D01*
X93631694Y-74484942D02*
X93679313Y-74532561D01*
X93679313Y-74532561D02*
X93726932Y-74532561D01*
X93726932Y-74532561D02*
X93822171Y-74484942D01*
X93822171Y-74484942D02*
X93869790Y-74389704D01*
X93869790Y-74389704D02*
X93869790Y-74151609D01*
X93869790Y-74151609D02*
X93774552Y-74008752D01*
X93774552Y-74008752D02*
X93631694Y-73913514D01*
X93631694Y-73913514D02*
X93441218Y-73865895D01*
X93441218Y-73865895D02*
X93250742Y-73913514D01*
X93250742Y-73913514D02*
X93107885Y-74008752D01*
X93107885Y-74008752D02*
X93012647Y-74151609D01*
X93012647Y-74151609D02*
X92965028Y-74342085D01*
X92965028Y-74342085D02*
X93012647Y-74532561D01*
X93012647Y-74532561D02*
X93107885Y-74675419D01*
X93107885Y-74675419D02*
X93250742Y-74770657D01*
X93250742Y-74770657D02*
X93441218Y-74818276D01*
X93441218Y-74818276D02*
X93631694Y-74770657D01*
X93631694Y-74770657D02*
X93774552Y-74675419D01*
X94869789Y-74580180D02*
X94822170Y-74627800D01*
X94822170Y-74627800D02*
X94679313Y-74675419D01*
X94679313Y-74675419D02*
X94584075Y-74675419D01*
X94584075Y-74675419D02*
X94441218Y-74627800D01*
X94441218Y-74627800D02*
X94345980Y-74532561D01*
X94345980Y-74532561D02*
X94298361Y-74437323D01*
X94298361Y-74437323D02*
X94250742Y-74246847D01*
X94250742Y-74246847D02*
X94250742Y-74103990D01*
X94250742Y-74103990D02*
X94298361Y-73913514D01*
X94298361Y-73913514D02*
X94345980Y-73818276D01*
X94345980Y-73818276D02*
X94441218Y-73723038D01*
X94441218Y-73723038D02*
X94584075Y-73675419D01*
X94584075Y-73675419D02*
X94679313Y-73675419D01*
X94679313Y-73675419D02*
X94822170Y-73723038D01*
X94822170Y-73723038D02*
X94869789Y-73770657D01*
X95060266Y-74770657D02*
X95822170Y-74770657D01*
X95917409Y-73675419D02*
X96488837Y-73675419D01*
X96203123Y-74675419D02*
X96203123Y-73675419D01*
X97250742Y-74675419D02*
X97250742Y-74151609D01*
X97250742Y-74151609D02*
X97203123Y-74056371D01*
X97203123Y-74056371D02*
X97107885Y-74008752D01*
X97107885Y-74008752D02*
X96917409Y-74008752D01*
X96917409Y-74008752D02*
X96822171Y-74056371D01*
X97250742Y-74627800D02*
X97155504Y-74675419D01*
X97155504Y-74675419D02*
X96917409Y-74675419D01*
X96917409Y-74675419D02*
X96822171Y-74627800D01*
X96822171Y-74627800D02*
X96774552Y-74532561D01*
X96774552Y-74532561D02*
X96774552Y-74437323D01*
X96774552Y-74437323D02*
X96822171Y-74342085D01*
X96822171Y-74342085D02*
X96917409Y-74294466D01*
X96917409Y-74294466D02*
X97155504Y-74294466D01*
X97155504Y-74294466D02*
X97250742Y-74246847D01*
X97726933Y-74675419D02*
X97726933Y-73675419D01*
X97822171Y-74294466D02*
X98107885Y-74675419D01*
X98107885Y-74008752D02*
X97726933Y-74389704D01*
X98917409Y-74627800D02*
X98822171Y-74675419D01*
X98822171Y-74675419D02*
X98631695Y-74675419D01*
X98631695Y-74675419D02*
X98536457Y-74627800D01*
X98536457Y-74627800D02*
X98488838Y-74532561D01*
X98488838Y-74532561D02*
X98488838Y-74151609D01*
X98488838Y-74151609D02*
X98536457Y-74056371D01*
X98536457Y-74056371D02*
X98631695Y-74008752D01*
X98631695Y-74008752D02*
X98822171Y-74008752D01*
X98822171Y-74008752D02*
X98917409Y-74056371D01*
X98917409Y-74056371D02*
X98965028Y-74151609D01*
X98965028Y-74151609D02*
X98965028Y-74246847D01*
X98965028Y-74246847D02*
X98488838Y-74342085D01*
X99155505Y-74770657D02*
X99917409Y-74770657D01*
X100536457Y-74627800D02*
X100441219Y-74675419D01*
X100441219Y-74675419D02*
X100250743Y-74675419D01*
X100250743Y-74675419D02*
X100155505Y-74627800D01*
X100155505Y-74627800D02*
X100107886Y-74532561D01*
X100107886Y-74532561D02*
X100107886Y-74151609D01*
X100107886Y-74151609D02*
X100155505Y-74056371D01*
X100155505Y-74056371D02*
X100250743Y-74008752D01*
X100250743Y-74008752D02*
X100441219Y-74008752D01*
X100441219Y-74008752D02*
X100536457Y-74056371D01*
X100536457Y-74056371D02*
X100584076Y-74151609D01*
X100584076Y-74151609D02*
X100584076Y-74246847D01*
X100584076Y-74246847D02*
X100107886Y-74342085D01*
D11*
X105711666Y-73749819D02*
X105711666Y-74464104D01*
X105711666Y-74464104D02*
X105664047Y-74606961D01*
X105664047Y-74606961D02*
X105568809Y-74702200D01*
X105568809Y-74702200D02*
X105425952Y-74749819D01*
X105425952Y-74749819D02*
X105330714Y-74749819D01*
X106140238Y-73845057D02*
X106187857Y-73797438D01*
X106187857Y-73797438D02*
X106283095Y-73749819D01*
X106283095Y-73749819D02*
X106521190Y-73749819D01*
X106521190Y-73749819D02*
X106616428Y-73797438D01*
X106616428Y-73797438D02*
X106664047Y-73845057D01*
X106664047Y-73845057D02*
X106711666Y-73940295D01*
X106711666Y-73940295D02*
X106711666Y-74035533D01*
X106711666Y-74035533D02*
X106664047Y-74178390D01*
X106664047Y-74178390D02*
X106092619Y-74749819D01*
X106092619Y-74749819D02*
X106711666Y-74749819D01*
X119721333Y-61319580D02*
X119673714Y-61367200D01*
X119673714Y-61367200D02*
X119530857Y-61414819D01*
X119530857Y-61414819D02*
X119435619Y-61414819D01*
X119435619Y-61414819D02*
X119292762Y-61367200D01*
X119292762Y-61367200D02*
X119197524Y-61271961D01*
X119197524Y-61271961D02*
X119149905Y-61176723D01*
X119149905Y-61176723D02*
X119102286Y-60986247D01*
X119102286Y-60986247D02*
X119102286Y-60843390D01*
X119102286Y-60843390D02*
X119149905Y-60652914D01*
X119149905Y-60652914D02*
X119197524Y-60557676D01*
X119197524Y-60557676D02*
X119292762Y-60462438D01*
X119292762Y-60462438D02*
X119435619Y-60414819D01*
X119435619Y-60414819D02*
X119530857Y-60414819D01*
X119530857Y-60414819D02*
X119673714Y-60462438D01*
X119673714Y-60462438D02*
X119721333Y-60510057D01*
X120578476Y-60414819D02*
X120388000Y-60414819D01*
X120388000Y-60414819D02*
X120292762Y-60462438D01*
X120292762Y-60462438D02*
X120245143Y-60510057D01*
X120245143Y-60510057D02*
X120149905Y-60652914D01*
X120149905Y-60652914D02*
X120102286Y-60843390D01*
X120102286Y-60843390D02*
X120102286Y-61224342D01*
X120102286Y-61224342D02*
X120149905Y-61319580D01*
X120149905Y-61319580D02*
X120197524Y-61367200D01*
X120197524Y-61367200D02*
X120292762Y-61414819D01*
X120292762Y-61414819D02*
X120483238Y-61414819D01*
X120483238Y-61414819D02*
X120578476Y-61367200D01*
X120578476Y-61367200D02*
X120626095Y-61319580D01*
X120626095Y-61319580D02*
X120673714Y-61224342D01*
X120673714Y-61224342D02*
X120673714Y-60986247D01*
X120673714Y-60986247D02*
X120626095Y-60891009D01*
X120626095Y-60891009D02*
X120578476Y-60843390D01*
X120578476Y-60843390D02*
X120483238Y-60795771D01*
X120483238Y-60795771D02*
X120292762Y-60795771D01*
X120292762Y-60795771D02*
X120197524Y-60843390D01*
X120197524Y-60843390D02*
X120149905Y-60891009D01*
X120149905Y-60891009D02*
X120102286Y-60986247D01*
X83493666Y-61684819D02*
X83493666Y-62399104D01*
X83493666Y-62399104D02*
X83446047Y-62541961D01*
X83446047Y-62541961D02*
X83350809Y-62637200D01*
X83350809Y-62637200D02*
X83207952Y-62684819D01*
X83207952Y-62684819D02*
X83112714Y-62684819D01*
X84493666Y-62684819D02*
X83922238Y-62684819D01*
X84207952Y-62684819D02*
X84207952Y-61684819D01*
X84207952Y-61684819D02*
X84112714Y-61827676D01*
X84112714Y-61827676D02*
X84017476Y-61922914D01*
X84017476Y-61922914D02*
X83922238Y-61970533D01*
X82664700Y-52958428D02*
X82664700Y-51815571D01*
X83236128Y-52386999D02*
X82093271Y-52386999D01*
X82664700Y-65868428D02*
X82664700Y-64725571D01*
X96625580Y-58398666D02*
X96673200Y-58446285D01*
X96673200Y-58446285D02*
X96720819Y-58589142D01*
X96720819Y-58589142D02*
X96720819Y-58684380D01*
X96720819Y-58684380D02*
X96673200Y-58827237D01*
X96673200Y-58827237D02*
X96577961Y-58922475D01*
X96577961Y-58922475D02*
X96482723Y-58970094D01*
X96482723Y-58970094D02*
X96292247Y-59017713D01*
X96292247Y-59017713D02*
X96149390Y-59017713D01*
X96149390Y-59017713D02*
X95958914Y-58970094D01*
X95958914Y-58970094D02*
X95863676Y-58922475D01*
X95863676Y-58922475D02*
X95768438Y-58827237D01*
X95768438Y-58827237D02*
X95720819Y-58684380D01*
X95720819Y-58684380D02*
X95720819Y-58589142D01*
X95720819Y-58589142D02*
X95768438Y-58446285D01*
X95768438Y-58446285D02*
X95816057Y-58398666D01*
X95720819Y-57493904D02*
X95720819Y-57970094D01*
X95720819Y-57970094D02*
X96197009Y-58017713D01*
X96197009Y-58017713D02*
X96149390Y-57970094D01*
X96149390Y-57970094D02*
X96101771Y-57874856D01*
X96101771Y-57874856D02*
X96101771Y-57636761D01*
X96101771Y-57636761D02*
X96149390Y-57541523D01*
X96149390Y-57541523D02*
X96197009Y-57493904D01*
X96197009Y-57493904D02*
X96292247Y-57446285D01*
X96292247Y-57446285D02*
X96530342Y-57446285D01*
X96530342Y-57446285D02*
X96625580Y-57493904D01*
X96625580Y-57493904D02*
X96673200Y-57541523D01*
X96673200Y-57541523D02*
X96720819Y-57636761D01*
X96720819Y-57636761D02*
X96720819Y-57874856D01*
X96720819Y-57874856D02*
X96673200Y-57970094D01*
X96673200Y-57970094D02*
X96625580Y-58017713D01*
X98657580Y-58398666D02*
X98705200Y-58446285D01*
X98705200Y-58446285D02*
X98752819Y-58589142D01*
X98752819Y-58589142D02*
X98752819Y-58684380D01*
X98752819Y-58684380D02*
X98705200Y-58827237D01*
X98705200Y-58827237D02*
X98609961Y-58922475D01*
X98609961Y-58922475D02*
X98514723Y-58970094D01*
X98514723Y-58970094D02*
X98324247Y-59017713D01*
X98324247Y-59017713D02*
X98181390Y-59017713D01*
X98181390Y-59017713D02*
X97990914Y-58970094D01*
X97990914Y-58970094D02*
X97895676Y-58922475D01*
X97895676Y-58922475D02*
X97800438Y-58827237D01*
X97800438Y-58827237D02*
X97752819Y-58684380D01*
X97752819Y-58684380D02*
X97752819Y-58589142D01*
X97752819Y-58589142D02*
X97800438Y-58446285D01*
X97800438Y-58446285D02*
X97848057Y-58398666D01*
X97752819Y-58065332D02*
X97752819Y-57398666D01*
X97752819Y-57398666D02*
X98752819Y-57827237D01*
X119213333Y-63859580D02*
X119165714Y-63907200D01*
X119165714Y-63907200D02*
X119022857Y-63954819D01*
X119022857Y-63954819D02*
X118927619Y-63954819D01*
X118927619Y-63954819D02*
X118784762Y-63907200D01*
X118784762Y-63907200D02*
X118689524Y-63811961D01*
X118689524Y-63811961D02*
X118641905Y-63716723D01*
X118641905Y-63716723D02*
X118594286Y-63526247D01*
X118594286Y-63526247D02*
X118594286Y-63383390D01*
X118594286Y-63383390D02*
X118641905Y-63192914D01*
X118641905Y-63192914D02*
X118689524Y-63097676D01*
X118689524Y-63097676D02*
X118784762Y-63002438D01*
X118784762Y-63002438D02*
X118927619Y-62954819D01*
X118927619Y-62954819D02*
X119022857Y-62954819D01*
X119022857Y-62954819D02*
X119165714Y-63002438D01*
X119165714Y-63002438D02*
X119213333Y-63050057D01*
X120070476Y-63288152D02*
X120070476Y-63954819D01*
X119832381Y-62907200D02*
X119594286Y-63621485D01*
X119594286Y-63621485D02*
X120213333Y-63621485D01*
X94942819Y-46521666D02*
X94466628Y-46854999D01*
X94942819Y-47093094D02*
X93942819Y-47093094D01*
X93942819Y-47093094D02*
X93942819Y-46712142D01*
X93942819Y-46712142D02*
X93990438Y-46616904D01*
X93990438Y-46616904D02*
X94038057Y-46569285D01*
X94038057Y-46569285D02*
X94133295Y-46521666D01*
X94133295Y-46521666D02*
X94276152Y-46521666D01*
X94276152Y-46521666D02*
X94371390Y-46569285D01*
X94371390Y-46569285D02*
X94419009Y-46616904D01*
X94419009Y-46616904D02*
X94466628Y-46712142D01*
X94466628Y-46712142D02*
X94466628Y-47093094D01*
X94942819Y-46045475D02*
X94942819Y-45854999D01*
X94942819Y-45854999D02*
X94895200Y-45759761D01*
X94895200Y-45759761D02*
X94847580Y-45712142D01*
X94847580Y-45712142D02*
X94704723Y-45616904D01*
X94704723Y-45616904D02*
X94514247Y-45569285D01*
X94514247Y-45569285D02*
X94133295Y-45569285D01*
X94133295Y-45569285D02*
X94038057Y-45616904D01*
X94038057Y-45616904D02*
X93990438Y-45664523D01*
X93990438Y-45664523D02*
X93942819Y-45759761D01*
X93942819Y-45759761D02*
X93942819Y-45950237D01*
X93942819Y-45950237D02*
X93990438Y-46045475D01*
X93990438Y-46045475D02*
X94038057Y-46093094D01*
X94038057Y-46093094D02*
X94133295Y-46140713D01*
X94133295Y-46140713D02*
X94371390Y-46140713D01*
X94371390Y-46140713D02*
X94466628Y-46093094D01*
X94466628Y-46093094D02*
X94514247Y-46045475D01*
X94514247Y-46045475D02*
X94561866Y-45950237D01*
X94561866Y-45950237D02*
X94561866Y-45759761D01*
X94561866Y-45759761D02*
X94514247Y-45664523D01*
X94514247Y-45664523D02*
X94466628Y-45616904D01*
X94466628Y-45616904D02*
X94371390Y-45569285D01*
X105102819Y-44362666D02*
X104626628Y-44695999D01*
X105102819Y-44934094D02*
X104102819Y-44934094D01*
X104102819Y-44934094D02*
X104102819Y-44553142D01*
X104102819Y-44553142D02*
X104150438Y-44457904D01*
X104150438Y-44457904D02*
X104198057Y-44410285D01*
X104198057Y-44410285D02*
X104293295Y-44362666D01*
X104293295Y-44362666D02*
X104436152Y-44362666D01*
X104436152Y-44362666D02*
X104531390Y-44410285D01*
X104531390Y-44410285D02*
X104579009Y-44457904D01*
X104579009Y-44457904D02*
X104626628Y-44553142D01*
X104626628Y-44553142D02*
X104626628Y-44934094D01*
X104102819Y-44029332D02*
X104102819Y-43410285D01*
X104102819Y-43410285D02*
X104483771Y-43743618D01*
X104483771Y-43743618D02*
X104483771Y-43600761D01*
X104483771Y-43600761D02*
X104531390Y-43505523D01*
X104531390Y-43505523D02*
X104579009Y-43457904D01*
X104579009Y-43457904D02*
X104674247Y-43410285D01*
X104674247Y-43410285D02*
X104912342Y-43410285D01*
X104912342Y-43410285D02*
X105007580Y-43457904D01*
X105007580Y-43457904D02*
X105055200Y-43505523D01*
X105055200Y-43505523D02*
X105102819Y-43600761D01*
X105102819Y-43600761D02*
X105102819Y-43886475D01*
X105102819Y-43886475D02*
X105055200Y-43981713D01*
X105055200Y-43981713D02*
X105007580Y-44029332D01*
X104894142Y-42999819D02*
X104560809Y-42523628D01*
X104322714Y-42999819D02*
X104322714Y-41999819D01*
X104322714Y-41999819D02*
X104703666Y-41999819D01*
X104703666Y-41999819D02*
X104798904Y-42047438D01*
X104798904Y-42047438D02*
X104846523Y-42095057D01*
X104846523Y-42095057D02*
X104894142Y-42190295D01*
X104894142Y-42190295D02*
X104894142Y-42333152D01*
X104894142Y-42333152D02*
X104846523Y-42428390D01*
X104846523Y-42428390D02*
X104798904Y-42476009D01*
X104798904Y-42476009D02*
X104703666Y-42523628D01*
X104703666Y-42523628D02*
X104322714Y-42523628D01*
X105846523Y-42999819D02*
X105275095Y-42999819D01*
X105560809Y-42999819D02*
X105560809Y-41999819D01*
X105560809Y-41999819D02*
X105465571Y-42142676D01*
X105465571Y-42142676D02*
X105370333Y-42237914D01*
X105370333Y-42237914D02*
X105275095Y-42285533D01*
X106465571Y-41999819D02*
X106560809Y-41999819D01*
X106560809Y-41999819D02*
X106656047Y-42047438D01*
X106656047Y-42047438D02*
X106703666Y-42095057D01*
X106703666Y-42095057D02*
X106751285Y-42190295D01*
X106751285Y-42190295D02*
X106798904Y-42380771D01*
X106798904Y-42380771D02*
X106798904Y-42618866D01*
X106798904Y-42618866D02*
X106751285Y-42809342D01*
X106751285Y-42809342D02*
X106703666Y-42904580D01*
X106703666Y-42904580D02*
X106656047Y-42952200D01*
X106656047Y-42952200D02*
X106560809Y-42999819D01*
X106560809Y-42999819D02*
X106465571Y-42999819D01*
X106465571Y-42999819D02*
X106370333Y-42952200D01*
X106370333Y-42952200D02*
X106322714Y-42904580D01*
X106322714Y-42904580D02*
X106275095Y-42809342D01*
X106275095Y-42809342D02*
X106227476Y-42618866D01*
X106227476Y-42618866D02*
X106227476Y-42380771D01*
X106227476Y-42380771D02*
X106275095Y-42190295D01*
X106275095Y-42190295D02*
X106322714Y-42095057D01*
X106322714Y-42095057D02*
X106370333Y-42047438D01*
X106370333Y-42047438D02*
X106465571Y-41999819D01*
X93724405Y-41094819D02*
X93724405Y-40094819D01*
X93724405Y-40094819D02*
X93962500Y-40094819D01*
X93962500Y-40094819D02*
X94105357Y-40142438D01*
X94105357Y-40142438D02*
X94200595Y-40237676D01*
X94200595Y-40237676D02*
X94248214Y-40332914D01*
X94248214Y-40332914D02*
X94295833Y-40523390D01*
X94295833Y-40523390D02*
X94295833Y-40666247D01*
X94295833Y-40666247D02*
X94248214Y-40856723D01*
X94248214Y-40856723D02*
X94200595Y-40951961D01*
X94200595Y-40951961D02*
X94105357Y-41047200D01*
X94105357Y-41047200D02*
X93962500Y-41094819D01*
X93962500Y-41094819D02*
X93724405Y-41094819D01*
X94676786Y-40190057D02*
X94724405Y-40142438D01*
X94724405Y-40142438D02*
X94819643Y-40094819D01*
X94819643Y-40094819D02*
X95057738Y-40094819D01*
X95057738Y-40094819D02*
X95152976Y-40142438D01*
X95152976Y-40142438D02*
X95200595Y-40190057D01*
X95200595Y-40190057D02*
X95248214Y-40285295D01*
X95248214Y-40285295D02*
X95248214Y-40380533D01*
X95248214Y-40380533D02*
X95200595Y-40523390D01*
X95200595Y-40523390D02*
X94629167Y-41094819D01*
X94629167Y-41094819D02*
X95248214Y-41094819D01*
X95083333Y-52429580D02*
X95035714Y-52477200D01*
X95035714Y-52477200D02*
X94892857Y-52524819D01*
X94892857Y-52524819D02*
X94797619Y-52524819D01*
X94797619Y-52524819D02*
X94654762Y-52477200D01*
X94654762Y-52477200D02*
X94559524Y-52381961D01*
X94559524Y-52381961D02*
X94511905Y-52286723D01*
X94511905Y-52286723D02*
X94464286Y-52096247D01*
X94464286Y-52096247D02*
X94464286Y-51953390D01*
X94464286Y-51953390D02*
X94511905Y-51762914D01*
X94511905Y-51762914D02*
X94559524Y-51667676D01*
X94559524Y-51667676D02*
X94654762Y-51572438D01*
X94654762Y-51572438D02*
X94797619Y-51524819D01*
X94797619Y-51524819D02*
X94892857Y-51524819D01*
X94892857Y-51524819D02*
X95035714Y-51572438D01*
X95035714Y-51572438D02*
X95083333Y-51620057D01*
X95464286Y-51620057D02*
X95511905Y-51572438D01*
X95511905Y-51572438D02*
X95607143Y-51524819D01*
X95607143Y-51524819D02*
X95845238Y-51524819D01*
X95845238Y-51524819D02*
X95940476Y-51572438D01*
X95940476Y-51572438D02*
X95988095Y-51620057D01*
X95988095Y-51620057D02*
X96035714Y-51715295D01*
X96035714Y-51715295D02*
X96035714Y-51810533D01*
X96035714Y-51810533D02*
X95988095Y-51953390D01*
X95988095Y-51953390D02*
X95416667Y-52524819D01*
X95416667Y-52524819D02*
X96035714Y-52524819D01*
X104163905Y-41094819D02*
X104163905Y-40094819D01*
X104163905Y-40094819D02*
X104402000Y-40094819D01*
X104402000Y-40094819D02*
X104544857Y-40142438D01*
X104544857Y-40142438D02*
X104640095Y-40237676D01*
X104640095Y-40237676D02*
X104687714Y-40332914D01*
X104687714Y-40332914D02*
X104735333Y-40523390D01*
X104735333Y-40523390D02*
X104735333Y-40666247D01*
X104735333Y-40666247D02*
X104687714Y-40856723D01*
X104687714Y-40856723D02*
X104640095Y-40951961D01*
X104640095Y-40951961D02*
X104544857Y-41047200D01*
X104544857Y-41047200D02*
X104402000Y-41094819D01*
X104402000Y-41094819D02*
X104163905Y-41094819D01*
X105592476Y-40428152D02*
X105592476Y-41094819D01*
X105354381Y-40047200D02*
X105116286Y-40761485D01*
X105116286Y-40761485D02*
X105735333Y-40761485D01*
X99083905Y-41094819D02*
X99083905Y-40094819D01*
X99083905Y-40094819D02*
X99322000Y-40094819D01*
X99322000Y-40094819D02*
X99464857Y-40142438D01*
X99464857Y-40142438D02*
X99560095Y-40237676D01*
X99560095Y-40237676D02*
X99607714Y-40332914D01*
X99607714Y-40332914D02*
X99655333Y-40523390D01*
X99655333Y-40523390D02*
X99655333Y-40666247D01*
X99655333Y-40666247D02*
X99607714Y-40856723D01*
X99607714Y-40856723D02*
X99560095Y-40951961D01*
X99560095Y-40951961D02*
X99464857Y-41047200D01*
X99464857Y-41047200D02*
X99322000Y-41094819D01*
X99322000Y-41094819D02*
X99083905Y-41094819D01*
X99988667Y-40094819D02*
X100607714Y-40094819D01*
X100607714Y-40094819D02*
X100274381Y-40475771D01*
X100274381Y-40475771D02*
X100417238Y-40475771D01*
X100417238Y-40475771D02*
X100512476Y-40523390D01*
X100512476Y-40523390D02*
X100560095Y-40571009D01*
X100560095Y-40571009D02*
X100607714Y-40666247D01*
X100607714Y-40666247D02*
X100607714Y-40904342D01*
X100607714Y-40904342D02*
X100560095Y-40999580D01*
X100560095Y-40999580D02*
X100512476Y-41047200D01*
X100512476Y-41047200D02*
X100417238Y-41094819D01*
X100417238Y-41094819D02*
X100131524Y-41094819D01*
X100131524Y-41094819D02*
X100036286Y-41047200D01*
X100036286Y-41047200D02*
X99988667Y-40999580D01*
X109424048Y-65218866D02*
X110185953Y-65218866D01*
X121533571Y-65259700D02*
X122676429Y-65259700D01*
X122105000Y-65831128D02*
X122105000Y-64688271D01*
X99108419Y-46521666D02*
X98632228Y-46854999D01*
X99108419Y-47093094D02*
X98108419Y-47093094D01*
X98108419Y-47093094D02*
X98108419Y-46712142D01*
X98108419Y-46712142D02*
X98156038Y-46616904D01*
X98156038Y-46616904D02*
X98203657Y-46569285D01*
X98203657Y-46569285D02*
X98298895Y-46521666D01*
X98298895Y-46521666D02*
X98441752Y-46521666D01*
X98441752Y-46521666D02*
X98536990Y-46569285D01*
X98536990Y-46569285D02*
X98584609Y-46616904D01*
X98584609Y-46616904D02*
X98632228Y-46712142D01*
X98632228Y-46712142D02*
X98632228Y-47093094D01*
X98108419Y-46188332D02*
X98108419Y-45521666D01*
X98108419Y-45521666D02*
X99108419Y-45950237D01*
X99655333Y-43126819D02*
X99322000Y-42650628D01*
X99083905Y-43126819D02*
X99083905Y-42126819D01*
X99083905Y-42126819D02*
X99464857Y-42126819D01*
X99464857Y-42126819D02*
X99560095Y-42174438D01*
X99560095Y-42174438D02*
X99607714Y-42222057D01*
X99607714Y-42222057D02*
X99655333Y-42317295D01*
X99655333Y-42317295D02*
X99655333Y-42460152D01*
X99655333Y-42460152D02*
X99607714Y-42555390D01*
X99607714Y-42555390D02*
X99560095Y-42603009D01*
X99560095Y-42603009D02*
X99464857Y-42650628D01*
X99464857Y-42650628D02*
X99083905Y-42650628D01*
X100036286Y-42222057D02*
X100083905Y-42174438D01*
X100083905Y-42174438D02*
X100179143Y-42126819D01*
X100179143Y-42126819D02*
X100417238Y-42126819D01*
X100417238Y-42126819D02*
X100512476Y-42174438D01*
X100512476Y-42174438D02*
X100560095Y-42222057D01*
X100560095Y-42222057D02*
X100607714Y-42317295D01*
X100607714Y-42317295D02*
X100607714Y-42412533D01*
X100607714Y-42412533D02*
X100560095Y-42555390D01*
X100560095Y-42555390D02*
X99988667Y-43126819D01*
X99988667Y-43126819D02*
X100607714Y-43126819D01*
X72310666Y-42095009D02*
X71977333Y-42095009D01*
X71977333Y-42618819D02*
X71977333Y-41618819D01*
X71977333Y-41618819D02*
X72453523Y-41618819D01*
X73358285Y-42618819D02*
X72786857Y-42618819D01*
X73072571Y-42618819D02*
X73072571Y-41618819D01*
X73072571Y-41618819D02*
X72977333Y-41761676D01*
X72977333Y-41761676D02*
X72882095Y-41856914D01*
X72882095Y-41856914D02*
X72786857Y-41904533D01*
X97025619Y-46521666D02*
X96549428Y-46854999D01*
X97025619Y-47093094D02*
X96025619Y-47093094D01*
X96025619Y-47093094D02*
X96025619Y-46712142D01*
X96025619Y-46712142D02*
X96073238Y-46616904D01*
X96073238Y-46616904D02*
X96120857Y-46569285D01*
X96120857Y-46569285D02*
X96216095Y-46521666D01*
X96216095Y-46521666D02*
X96358952Y-46521666D01*
X96358952Y-46521666D02*
X96454190Y-46569285D01*
X96454190Y-46569285D02*
X96501809Y-46616904D01*
X96501809Y-46616904D02*
X96549428Y-46712142D01*
X96549428Y-46712142D02*
X96549428Y-47093094D01*
X96454190Y-45950237D02*
X96406571Y-46045475D01*
X96406571Y-46045475D02*
X96358952Y-46093094D01*
X96358952Y-46093094D02*
X96263714Y-46140713D01*
X96263714Y-46140713D02*
X96216095Y-46140713D01*
X96216095Y-46140713D02*
X96120857Y-46093094D01*
X96120857Y-46093094D02*
X96073238Y-46045475D01*
X96073238Y-46045475D02*
X96025619Y-45950237D01*
X96025619Y-45950237D02*
X96025619Y-45759761D01*
X96025619Y-45759761D02*
X96073238Y-45664523D01*
X96073238Y-45664523D02*
X96120857Y-45616904D01*
X96120857Y-45616904D02*
X96216095Y-45569285D01*
X96216095Y-45569285D02*
X96263714Y-45569285D01*
X96263714Y-45569285D02*
X96358952Y-45616904D01*
X96358952Y-45616904D02*
X96406571Y-45664523D01*
X96406571Y-45664523D02*
X96454190Y-45759761D01*
X96454190Y-45759761D02*
X96454190Y-45950237D01*
X96454190Y-45950237D02*
X96501809Y-46045475D01*
X96501809Y-46045475D02*
X96549428Y-46093094D01*
X96549428Y-46093094D02*
X96644666Y-46140713D01*
X96644666Y-46140713D02*
X96835142Y-46140713D01*
X96835142Y-46140713D02*
X96930380Y-46093094D01*
X96930380Y-46093094D02*
X96978000Y-46045475D01*
X96978000Y-46045475D02*
X97025619Y-45950237D01*
X97025619Y-45950237D02*
X97025619Y-45759761D01*
X97025619Y-45759761D02*
X96978000Y-45664523D01*
X96978000Y-45664523D02*
X96930380Y-45616904D01*
X96930380Y-45616904D02*
X96835142Y-45569285D01*
X96835142Y-45569285D02*
X96644666Y-45569285D01*
X96644666Y-45569285D02*
X96549428Y-45616904D01*
X96549428Y-45616904D02*
X96501809Y-45664523D01*
X96501809Y-45664523D02*
X96454190Y-45759761D01*
D10*
X118451333Y-45161419D02*
X117975143Y-45161419D01*
X117975143Y-45161419D02*
X117975143Y-44161419D01*
X119308476Y-45161419D02*
X118737048Y-45161419D01*
X119022762Y-45161419D02*
X119022762Y-44161419D01*
X119022762Y-44161419D02*
X118927524Y-44304276D01*
X118927524Y-44304276D02*
X118832286Y-44399514D01*
X118832286Y-44399514D02*
X118737048Y-44447133D01*
D11*
X100076095Y-56858819D02*
X100076095Y-57668342D01*
X100076095Y-57668342D02*
X100123714Y-57763580D01*
X100123714Y-57763580D02*
X100171333Y-57811200D01*
X100171333Y-57811200D02*
X100266571Y-57858819D01*
X100266571Y-57858819D02*
X100457047Y-57858819D01*
X100457047Y-57858819D02*
X100552285Y-57811200D01*
X100552285Y-57811200D02*
X100599904Y-57763580D01*
X100599904Y-57763580D02*
X100647523Y-57668342D01*
X100647523Y-57668342D02*
X100647523Y-56858819D01*
X101647523Y-57858819D02*
X101076095Y-57858819D01*
X101361809Y-57858819D02*
X101361809Y-56858819D01*
X101361809Y-56858819D02*
X101266571Y-57001676D01*
X101266571Y-57001676D02*
X101171333Y-57096914D01*
X101171333Y-57096914D02*
X101076095Y-57144533D01*
X101191219Y-46521666D02*
X100715028Y-46854999D01*
X101191219Y-47093094D02*
X100191219Y-47093094D01*
X100191219Y-47093094D02*
X100191219Y-46712142D01*
X100191219Y-46712142D02*
X100238838Y-46616904D01*
X100238838Y-46616904D02*
X100286457Y-46569285D01*
X100286457Y-46569285D02*
X100381695Y-46521666D01*
X100381695Y-46521666D02*
X100524552Y-46521666D01*
X100524552Y-46521666D02*
X100619790Y-46569285D01*
X100619790Y-46569285D02*
X100667409Y-46616904D01*
X100667409Y-46616904D02*
X100715028Y-46712142D01*
X100715028Y-46712142D02*
X100715028Y-47093094D01*
X100191219Y-45664523D02*
X100191219Y-45854999D01*
X100191219Y-45854999D02*
X100238838Y-45950237D01*
X100238838Y-45950237D02*
X100286457Y-45997856D01*
X100286457Y-45997856D02*
X100429314Y-46093094D01*
X100429314Y-46093094D02*
X100619790Y-46140713D01*
X100619790Y-46140713D02*
X101000742Y-46140713D01*
X101000742Y-46140713D02*
X101095980Y-46093094D01*
X101095980Y-46093094D02*
X101143600Y-46045475D01*
X101143600Y-46045475D02*
X101191219Y-45950237D01*
X101191219Y-45950237D02*
X101191219Y-45759761D01*
X101191219Y-45759761D02*
X101143600Y-45664523D01*
X101143600Y-45664523D02*
X101095980Y-45616904D01*
X101095980Y-45616904D02*
X101000742Y-45569285D01*
X101000742Y-45569285D02*
X100762647Y-45569285D01*
X100762647Y-45569285D02*
X100667409Y-45616904D01*
X100667409Y-45616904D02*
X100619790Y-45664523D01*
X100619790Y-45664523D02*
X100572171Y-45759761D01*
X100572171Y-45759761D02*
X100572171Y-45950237D01*
X100572171Y-45950237D02*
X100619790Y-46045475D01*
X100619790Y-46045475D02*
X100667409Y-46093094D01*
X100667409Y-46093094D02*
X100762647Y-46140713D01*
X103274019Y-46521666D02*
X102797828Y-46854999D01*
X103274019Y-47093094D02*
X102274019Y-47093094D01*
X102274019Y-47093094D02*
X102274019Y-46712142D01*
X102274019Y-46712142D02*
X102321638Y-46616904D01*
X102321638Y-46616904D02*
X102369257Y-46569285D01*
X102369257Y-46569285D02*
X102464495Y-46521666D01*
X102464495Y-46521666D02*
X102607352Y-46521666D01*
X102607352Y-46521666D02*
X102702590Y-46569285D01*
X102702590Y-46569285D02*
X102750209Y-46616904D01*
X102750209Y-46616904D02*
X102797828Y-46712142D01*
X102797828Y-46712142D02*
X102797828Y-47093094D01*
X102607352Y-45664523D02*
X103274019Y-45664523D01*
X102226400Y-45902618D02*
X102940685Y-46140713D01*
X102940685Y-46140713D02*
X102940685Y-45521666D01*
X94593580Y-58398666D02*
X94641200Y-58446285D01*
X94641200Y-58446285D02*
X94688819Y-58589142D01*
X94688819Y-58589142D02*
X94688819Y-58684380D01*
X94688819Y-58684380D02*
X94641200Y-58827237D01*
X94641200Y-58827237D02*
X94545961Y-58922475D01*
X94545961Y-58922475D02*
X94450723Y-58970094D01*
X94450723Y-58970094D02*
X94260247Y-59017713D01*
X94260247Y-59017713D02*
X94117390Y-59017713D01*
X94117390Y-59017713D02*
X93926914Y-58970094D01*
X93926914Y-58970094D02*
X93831676Y-58922475D01*
X93831676Y-58922475D02*
X93736438Y-58827237D01*
X93736438Y-58827237D02*
X93688819Y-58684380D01*
X93688819Y-58684380D02*
X93688819Y-58589142D01*
X93688819Y-58589142D02*
X93736438Y-58446285D01*
X93736438Y-58446285D02*
X93784057Y-58398666D01*
X93688819Y-58065332D02*
X93688819Y-57446285D01*
X93688819Y-57446285D02*
X94069771Y-57779618D01*
X94069771Y-57779618D02*
X94069771Y-57636761D01*
X94069771Y-57636761D02*
X94117390Y-57541523D01*
X94117390Y-57541523D02*
X94165009Y-57493904D01*
X94165009Y-57493904D02*
X94260247Y-57446285D01*
X94260247Y-57446285D02*
X94498342Y-57446285D01*
X94498342Y-57446285D02*
X94593580Y-57493904D01*
X94593580Y-57493904D02*
X94641200Y-57541523D01*
X94641200Y-57541523D02*
X94688819Y-57636761D01*
X94688819Y-57636761D02*
X94688819Y-57922475D01*
X94688819Y-57922475D02*
X94641200Y-58017713D01*
X94641200Y-58017713D02*
X94593580Y-58065332D01*
X88719819Y-60428094D02*
X87719819Y-60428094D01*
X87719819Y-60428094D02*
X87719819Y-60189999D01*
X87719819Y-60189999D02*
X87767438Y-60047142D01*
X87767438Y-60047142D02*
X87862676Y-59951904D01*
X87862676Y-59951904D02*
X87957914Y-59904285D01*
X87957914Y-59904285D02*
X88148390Y-59856666D01*
X88148390Y-59856666D02*
X88291247Y-59856666D01*
X88291247Y-59856666D02*
X88481723Y-59904285D01*
X88481723Y-59904285D02*
X88576961Y-59951904D01*
X88576961Y-59951904D02*
X88672200Y-60047142D01*
X88672200Y-60047142D02*
X88719819Y-60189999D01*
X88719819Y-60189999D02*
X88719819Y-60428094D01*
X88719819Y-58904285D02*
X88719819Y-59475713D01*
X88719819Y-59189999D02*
X87719819Y-59189999D01*
X87719819Y-59189999D02*
X87862676Y-59285237D01*
X87862676Y-59285237D02*
X87957914Y-59380475D01*
X87957914Y-59380475D02*
X88005533Y-59475713D01*
X94067333Y-43126819D02*
X93734000Y-42650628D01*
X93495905Y-43126819D02*
X93495905Y-42126819D01*
X93495905Y-42126819D02*
X93876857Y-42126819D01*
X93876857Y-42126819D02*
X93972095Y-42174438D01*
X93972095Y-42174438D02*
X94019714Y-42222057D01*
X94019714Y-42222057D02*
X94067333Y-42317295D01*
X94067333Y-42317295D02*
X94067333Y-42460152D01*
X94067333Y-42460152D02*
X94019714Y-42555390D01*
X94019714Y-42555390D02*
X93972095Y-42603009D01*
X93972095Y-42603009D02*
X93876857Y-42650628D01*
X93876857Y-42650628D02*
X93495905Y-42650628D01*
X95019714Y-43126819D02*
X94448286Y-43126819D01*
X94734000Y-43126819D02*
X94734000Y-42126819D01*
X94734000Y-42126819D02*
X94638762Y-42269676D01*
X94638762Y-42269676D02*
X94543524Y-42364914D01*
X94543524Y-42364914D02*
X94448286Y-42412533D01*
X107134819Y-44870666D02*
X106658628Y-45203999D01*
X107134819Y-45442094D02*
X106134819Y-45442094D01*
X106134819Y-45442094D02*
X106134819Y-45061142D01*
X106134819Y-45061142D02*
X106182438Y-44965904D01*
X106182438Y-44965904D02*
X106230057Y-44918285D01*
X106230057Y-44918285D02*
X106325295Y-44870666D01*
X106325295Y-44870666D02*
X106468152Y-44870666D01*
X106468152Y-44870666D02*
X106563390Y-44918285D01*
X106563390Y-44918285D02*
X106611009Y-44965904D01*
X106611009Y-44965904D02*
X106658628Y-45061142D01*
X106658628Y-45061142D02*
X106658628Y-45442094D01*
X106134819Y-43965904D02*
X106134819Y-44442094D01*
X106134819Y-44442094D02*
X106611009Y-44489713D01*
X106611009Y-44489713D02*
X106563390Y-44442094D01*
X106563390Y-44442094D02*
X106515771Y-44346856D01*
X106515771Y-44346856D02*
X106515771Y-44108761D01*
X106515771Y-44108761D02*
X106563390Y-44013523D01*
X106563390Y-44013523D02*
X106611009Y-43965904D01*
X106611009Y-43965904D02*
X106706247Y-43918285D01*
X106706247Y-43918285D02*
X106944342Y-43918285D01*
X106944342Y-43918285D02*
X107039580Y-43965904D01*
X107039580Y-43965904D02*
X107087200Y-44013523D01*
X107087200Y-44013523D02*
X107134819Y-44108761D01*
X107134819Y-44108761D02*
X107134819Y-44346856D01*
X107134819Y-44346856D02*
X107087200Y-44442094D01*
X107087200Y-44442094D02*
X107039580Y-44489713D01*
X105261580Y-53252666D02*
X105309200Y-53300285D01*
X105309200Y-53300285D02*
X105356819Y-53443142D01*
X105356819Y-53443142D02*
X105356819Y-53538380D01*
X105356819Y-53538380D02*
X105309200Y-53681237D01*
X105309200Y-53681237D02*
X105213961Y-53776475D01*
X105213961Y-53776475D02*
X105118723Y-53824094D01*
X105118723Y-53824094D02*
X104928247Y-53871713D01*
X104928247Y-53871713D02*
X104785390Y-53871713D01*
X104785390Y-53871713D02*
X104594914Y-53824094D01*
X104594914Y-53824094D02*
X104499676Y-53776475D01*
X104499676Y-53776475D02*
X104404438Y-53681237D01*
X104404438Y-53681237D02*
X104356819Y-53538380D01*
X104356819Y-53538380D02*
X104356819Y-53443142D01*
X104356819Y-53443142D02*
X104404438Y-53300285D01*
X104404438Y-53300285D02*
X104452057Y-53252666D01*
X105356819Y-52300285D02*
X105356819Y-52871713D01*
X105356819Y-52585999D02*
X104356819Y-52585999D01*
X104356819Y-52585999D02*
X104499676Y-52681237D01*
X104499676Y-52681237D02*
X104594914Y-52776475D01*
X104594914Y-52776475D02*
X104642533Y-52871713D01*
D12*
%TO.C,C6*%
X116339252Y-60225000D02*
X115816748Y-60225000D01*
X116339252Y-61695000D02*
X115816748Y-61695000D01*
%TO.C,J1*%
X63715000Y-50452000D02*
X78025000Y-50452000D01*
X63715000Y-66172000D02*
X63715000Y-50452000D01*
X63715000Y-66172000D02*
X78025000Y-66172000D01*
X82135000Y-59602000D02*
X82135000Y-55862000D01*
X78025000Y-50452000D02*
G75*
G02*
X81955413Y-53360352I0J-4110000D01*
G01*
X81547958Y-64178806D02*
G75*
G02*
X78025000Y-66172000I-3522957J2116805D01*
G01*
%TO.C,C5*%
X95531000Y-55110748D02*
X95531000Y-55633252D01*
X97001000Y-55110748D02*
X97001000Y-55633252D01*
%TO.C,C7*%
X97563000Y-55110748D02*
X97563000Y-55633252D01*
X99033000Y-55110748D02*
X99033000Y-55633252D01*
%TO.C,C4*%
X116281252Y-62590000D02*
X114858748Y-62590000D01*
X116281252Y-64410000D02*
X114858748Y-64410000D01*
%TO.C,R9*%
X93753000Y-49376064D02*
X93753000Y-48921936D01*
X95223000Y-49376064D02*
X95223000Y-48921936D01*
%TO.C,R3*%
X103913000Y-46508936D02*
X103913000Y-46963064D01*
X105383000Y-46508936D02*
X105383000Y-46963064D01*
%TO.C,R10*%
X108939064Y-41810000D02*
X108484936Y-41810000D01*
X108939064Y-43280000D02*
X108484936Y-43280000D01*
%TO.C,D2*%
X96456500Y-41375000D02*
X98741500Y-41375000D01*
X98741500Y-39905000D02*
X96456500Y-39905000D01*
X98741500Y-41375000D02*
X98741500Y-39905000D01*
%TO.C,C2*%
X98493252Y-51335000D02*
X97970746Y-51335000D01*
X98493252Y-52805000D02*
X97970746Y-52805000D01*
%TO.C,D4*%
X106642000Y-41375000D02*
X108927000Y-41375000D01*
X108927000Y-39905000D02*
X106642000Y-39905000D01*
X108927000Y-41375000D02*
X108927000Y-39905000D01*
%TO.C,D3*%
X101562000Y-41375000D02*
X103847000Y-41375000D01*
X103847000Y-39905000D02*
X101562000Y-39905000D01*
X103847000Y-41375000D02*
X103847000Y-39905000D01*
%TO.C,J2*%
X121194900Y-65836282D02*
G75*
G02*
X124065000Y-69795000I-1239898J-3918716D01*
G01*
X108345000Y-69795000D02*
G75*
G02*
X110338194Y-66272042I4110000J0D01*
G01*
X124065000Y-75405000D02*
X124065000Y-69795000D01*
X124065000Y-75405000D02*
X123215000Y-75405000D01*
X123215000Y-83105000D02*
X123215000Y-75405000D01*
X123215000Y-83105000D02*
X109195000Y-83105000D01*
X118655000Y-65685000D02*
X114915000Y-65685000D01*
X109195000Y-83105000D02*
X109195000Y-75405000D01*
X109195000Y-75405000D02*
X108345000Y-75405000D01*
X108345000Y-75405000D02*
X108345000Y-69795000D01*
%TO.C,R7*%
X97817000Y-49376064D02*
X97817000Y-48921936D01*
X99287000Y-49376064D02*
X99287000Y-48921936D01*
%TO.C,R2*%
X102589064Y-41937000D02*
X102134936Y-41937000D01*
X102589064Y-43407000D02*
X102134936Y-43407000D01*
D13*
%TO.C,F1*%
X73030000Y-42990000D02*
X73030000Y-49720000D01*
X73030000Y-49720000D02*
X92840000Y-49720000D01*
X92840000Y-42990000D02*
X73030000Y-42990000D01*
X92840000Y-49720000D02*
X92840000Y-42990000D01*
D12*
%TO.C,R8*%
X95785000Y-48921936D02*
X95785000Y-49376064D01*
X97255000Y-48921936D02*
X97255000Y-49376064D01*
D10*
%TO.C,L1*%
X108986000Y-56574000D02*
X108986000Y-48074000D01*
X110986000Y-46074000D02*
X120486000Y-46074000D01*
X120486000Y-58574000D02*
X110986000Y-58574000D01*
X122486000Y-48074000D02*
X122486000Y-56574000D01*
X108986000Y-48074000D02*
G75*
G02*
X110986000Y-46074000I1999999J1D01*
G01*
X110986000Y-58574000D02*
G75*
G02*
X108986000Y-56574000I-1J1999999D01*
G01*
X120486000Y-46074000D02*
G75*
G02*
X122486000Y-48074000I0J-2000000D01*
G01*
X122486000Y-56574000D02*
G75*
G02*
X120486000Y-58574000I-2000000J0D01*
G01*
D14*
%TO.C,U1*%
X100218400Y-52375399D02*
X100218400Y-52851253D01*
X100383947Y-52375399D02*
X100218400Y-52375399D01*
X103977600Y-52375399D02*
X103812053Y-52375399D01*
X103977600Y-52851253D02*
X103977600Y-52375399D01*
D12*
%TO.C,R6*%
X99849000Y-48921936D02*
X99849000Y-49376064D01*
X101319000Y-48921936D02*
X101319000Y-49376064D01*
%TO.C,R4*%
X101881000Y-49376064D02*
X101881000Y-48921936D01*
X103351000Y-49376064D02*
X103351000Y-48921936D01*
%TO.C,C3*%
X93499000Y-55110748D02*
X93499000Y-55633252D01*
X94969000Y-55110748D02*
X94969000Y-55633252D01*
%TO.C,D1*%
X86115000Y-51331000D02*
X86115000Y-57141000D01*
X90415000Y-51331000D02*
X86115000Y-51331000D01*
X90415000Y-51331000D02*
X90415000Y-57141000D01*
%TO.C,R1*%
X97509064Y-41937000D02*
X97054936Y-41937000D01*
X97509064Y-43407000D02*
X97054936Y-43407000D01*
%TO.C,R5*%
X105945000Y-47471064D02*
X105945000Y-47016936D01*
X107415000Y-47471064D02*
X107415000Y-47016936D01*
%TO.C,C1*%
X103913000Y-50030748D02*
X103913000Y-50553252D01*
X105383000Y-50030748D02*
X105383000Y-50553252D01*
%TD*%
M02*
