M48
; DRILL file {KiCad 8.0.3} date 2024-07-18T08:28:18+0900
; FORMAT={-:-/ absolute / metric / decimal}
; #@! TF.CreationDate,2024-07-18T08:28:18+09:00
; #@! TF.GenerationSoftware,Kicad,Pcbnew,8.0.3
; #@! TF.FileFunction,MixedPlating,1,2
FMAT,2
METRIC
; #@! TA.AperFunction,Plated,PTH,ViaDrill
T1C0.300
; #@! TA.AperFunction,Plated,PTH,ComponentDrill
T2C0.600
; #@! TA.AperFunction,Plated,PTH,ComponentDrill
T3C1.600
; #@! TA.AperFunction,Plated,PTH,ComponentDrill
T4C2.700
%
G90
G05
T1
X83.82Y-60.96
X83.82Y-63.5
X83.82Y-66.04
X83.82Y-68.58
X86.36Y-60.96
X86.36Y-63.5
X86.36Y-66.04
X86.36Y-68.58
X86.995Y-51.435
X86.995Y-52.705
X86.995Y-53.975
X88.265Y-51.435
X88.265Y-52.705
X88.265Y-53.975
X88.9Y-60.96
X88.9Y-63.5
X88.9Y-66.04
X88.9Y-68.58
X89.535Y-51.435
X89.535Y-52.705
X89.535Y-53.975
X90.805Y-51.435
X90.805Y-52.705
X90.805Y-53.975
X91.44Y-60.96
X91.44Y-63.5
X91.44Y-66.04
X91.44Y-68.58
X93.98Y-44.958
X93.98Y-46.736
X93.98Y-52.07
X93.98Y-53.34
X93.98Y-54.61
X93.98Y-60.96
X93.98Y-63.5
X93.98Y-66.04
X93.98Y-68.58
X94.488Y-48.26
X95.25Y-44.958
X95.25Y-46.736
X95.25Y-52.07
X95.25Y-53.34
X95.25Y-54.61
X96.52Y-44.958
X96.52Y-46.736
X96.52Y-53.34
X96.52Y-54.61
X96.52Y-60.96
X96.52Y-63.5
X96.52Y-66.04
X96.52Y-68.58
X96.52Y-71.12
X97.79Y-44.958
X97.79Y-46.736
X97.79Y-53.34
X97.79Y-54.61
X99.06Y-44.958
X99.06Y-46.736
X99.06Y-52.07
X99.06Y-53.34
X99.06Y-54.61
X99.06Y-60.96
X99.06Y-63.5
X99.06Y-66.04
X99.06Y-68.58
X99.06Y-71.12
X100.33Y-44.958
X100.33Y-46.736
X100.736Y-52.4
X101.6Y-60.96
X101.6Y-63.5
X101.6Y-66.04
X101.6Y-68.58
X101.6Y-71.12
X101.6Y-73.66
X102.235Y-48.26
X103.124Y-45.72
X103.886Y-52.324
X104.14Y-60.96
X104.14Y-63.5
X104.14Y-66.04
X104.14Y-68.58
X104.14Y-71.12
X104.14Y-73.66
X104.648Y-49.342
X104.648Y-51.308
X105.41Y-53.34
X105.41Y-54.61
X106.68Y-53.34
X106.68Y-54.61
X106.68Y-60.96
X106.68Y-63.5
X106.68Y-66.04
X106.68Y-68.58
X106.68Y-71.12
X106.68Y-73.66
X107.442Y-42.037
X107.442Y-43.053
X108.204Y-42.037
X108.204Y-43.053
X108.712Y-50.546
X108.712Y-51.816
X108.712Y-53.086
X108.712Y-54.356
X109.982Y-50.546
X109.982Y-51.816
X109.982Y-53.086
X109.982Y-54.356
X110.49Y-44.196
X111.252Y-50.546
X111.252Y-51.816
X111.252Y-53.086
X111.252Y-54.356
X113.03Y-40.767
X113.03Y-42.418
X113.03Y-44.196
X115.57Y-40.767
X115.57Y-42.418
X115.57Y-44.196
X118.11Y-40.767
X118.11Y-42.418
X118.11Y-44.196
X118.745Y-60.325
X118.745Y-62.865
X120.015Y-50.165
X120.015Y-51.435
X120.015Y-52.705
X120.015Y-53.975
X120.65Y-40.767
X120.65Y-42.418
X120.65Y-44.196
X121.285Y-50.165
X121.285Y-51.435
X121.285Y-52.705
X121.285Y-53.975
X121.285Y-60.325
X121.285Y-62.865
X122.555Y-50.165
X122.555Y-51.435
X122.555Y-52.705
X122.555Y-53.975
X123.19Y-40.767
X123.19Y-42.418
X123.19Y-44.196
X123.825Y-50.165
X123.825Y-52.705
X123.825Y-55.245
X123.825Y-57.785
X123.825Y-60.325
X123.825Y-62.865
X123.825Y-65.405
X123.825Y-67.945
X125.73Y-40.767
X125.73Y-42.418
X125.73Y-44.196
X125.73Y-46.228
X126.365Y-50.165
X126.365Y-52.705
X126.365Y-55.245
X126.365Y-57.785
X126.365Y-60.325
X126.365Y-62.865
X126.365Y-65.405
X126.365Y-67.945
X126.873Y-48.133
X128.27Y-40.767
X128.27Y-42.418
X128.27Y-44.196
X128.27Y-46.228
X129.032Y-48.133
X129.921Y-50.165
X129.921Y-52.705
X129.921Y-55.245
X129.921Y-57.785
X129.921Y-60.325
X129.921Y-62.865
X129.921Y-65.405
X129.921Y-67.945
X129.921Y-70.485
X129.921Y-73.025
X130.81Y-40.767
X130.81Y-42.418
X130.81Y-44.196
X130.81Y-46.228
X131.064Y-48.133
X131.826Y-50.165
X131.826Y-52.705
X131.826Y-55.245
X131.826Y-57.785
X131.826Y-60.325
X131.826Y-62.865
X131.826Y-65.405
X131.826Y-67.945
X131.826Y-70.485
X131.826Y-73.025
T3
X76.2Y-44.655
X76.2Y-48.055
X89.67Y-44.655
X89.67Y-48.055
T4
X80.175Y-54.712
X80.175Y-61.912
X112.605Y-67.645
X119.805Y-67.645
T2
G00X73.625Y-51.562
M15
G01X74.725Y-51.562
M16
G05
G00X73.625Y-65.062
M15
G01X74.725Y-65.062
M16
G05
G00X109.455Y-74.195
M15
G01X109.455Y-73.095
M16
G05
G00X122.955Y-74.195
M15
G01X122.955Y-73.095
M16
G05
M30
